<?xml version="1.0" standalone="no"?><!DOCTYPE svg PUBLIC "-//W3C//DTD SVG 1.1//EN" "http://www.w3.org/Graphics/SVG/1.1/DTD/svg11.dtd" ><svg xmlns="http://www.w3.org/2000/svg"><metadata></metadata><defs><font id="FontForge 2.0 : I.Ngaan : 7-7-2014" horiz-adv-x="1024"><font-face font-family="I.Ngaan" font-weight="400" font-stretch="normal" units-per-em="1024" panose-1="2 0 6 3 0 0 0 0 0 0" ascent="812" descent="-212" x-height="0" bbox="5 -191 968 742" underline-thickness="0" underline-position="50" unicode-range="U+0041-7bb4" /><missing-glyph horiz-adv-x="374" d="M34 0 l0 682 l272 0 l0 -682 l-272 0 ZM68 34 l204 0 l0 614 l-204 0 l0 -614 Z" /><glyph glyph-name="uni6270" unicode="&#x6270;" d="M256 723 q15 17 30 14 q37 -12 43 -53 q0 -49 3 -98 q12 -18 33 -8 q28 9 44 -3 q33 -52 -45 -112 q-23 -15 -30 -33 q-3 -24 -2 -48 q5 -38 50 -4 q24 20 30 37 q1 17 11 28 q38 21 112 34 q25 9 27 34 q16 60 27 120 q5 22 15 40 q26 46 65 8 q14 -15 5 -51 q-2 -31 -19 -79 q-9 -27 -3 -32 q14 -8 49 7 q40 15 84 5 q52 -15 40 -54 q-5 -14 -42 -30 q-80 -20 -160 -44 q-24 -11 -27 -35 q-55 -222 -193 -400 q-26 -35 -19 2 q36 150 120 359 q2 24 -2 29 q-5 3 -35 4 q-12 0 -31 12 q-23 25 -42 -15 q-14 -20 -32 -40 q-34 -26 -28 -56 q-1 -113 1 -234 q5 -68 -77 -101 q-20 -11 -40 -26 q-33 -11 -38 38 q-7 20 -23 41 q-24 20 3 18 q38 -7 73 22 q30 57 16 165 q-9 15 -34 -10 q-41 -39 -85 -26 q-36 27 -19 62 q16 25 45 42 q42 23 84 50 q17 23 7 65 q-11 11 -41 9 q-52 11 -91 73 q-9 13 -1 30 q13 23 46 33 l40 12 q59 9 46 58 q-3 45 -3 91 q0 30 13 50 ZM794 638 q10 18 44 15 q58 -6 76 -69 q4 -24 -12 -41 q-61 -29 -105 61 q-8 21 -3 34 ZM660 350 q27 25 58 -10 q18 -36 -11 -80 q-26 -68 -27 -173 q1 -35 26 -59 q81 -31 162 9 q32 23 37 70 q9 33 15 2 q2 -24 24 -48 q51 -30 6 -76 q-19 -53 -66 -55 q-82 -23 -160 -10 q-91 13 -121 121 q-10 49 13 170 q9 50 25 100 q8 26 19 39 Z" /><glyph glyph-name="uni7BB4" unicode="&#x7bb4;" d="M612 742 q42 57 73 -22 q13 -30 54 -13 q51 12 70 11 q24 -4 41 -24 q12 -13 0 -26 q-20 -13 -56 -15 q-48 -3 -24 -39 q22 -44 -16 -73 q-16 -8 -32 12 q-20 30 -37 60 q-32 31 -79 -14 q-40 -34 -80 -60 q-10 -4 -16 -4 q-7 3 0 34 q17 87 102 173 ZM277 726 q32 49 61 5 l18 -44 q4 -4 34 -5 q52 15 107 23 q14 -5 17 -22 q12 -27 -28 -38 l-40 -13 q-33 -9 -17 -43 q7 -26 -2 -48 q-11 -30 -42 -21 q-21 14 -30 59 q0 45 -43 33 q-22 -5 -44 -35 q-22 -30 -64 -65 q-34 -21 -30 14 q21 110 103 200 ZM521 511 q33 19 63 -30 q12 -13 40 -6 q22 8 49 3 q20 -23 -11 -55 q-12 -10 -39 -20 q-36 -16 -19 -56 q25 -100 51 -144 q22 -6 29 32 l23 70 q4 36 32 48 q31 4 42 -41 q3 -71 -49 -167 q-33 -38 7 -80 q53 -68 122 -101 q44 -25 64 49 q12 32 13 2 q0 -16 3 -39 q-2 -19 5 -35 q25 -18 22 -40 q-45 -44 -82 -33 q-89 15 -194 126 q-25 43 -57 10 q-69 -83 -161 -118 q-30 -8 -7 21 q96 106 132 160 q23 24 11 52 q-51 105 -85 230 q-15 16 -38 3 q-90 -45 -140 -26 q-19 18 -30 36 q-17 24 6 39 q20 6 40 9 l100 21 q44 5 37 42 q2 25 21 38 ZM735 500 q48 26 100 -25 q17 -38 -22 -49 q-50 3 -75 46 q-9 23 -3 28 ZM218 366 q7 31 30 26 q39 -15 42 -59 q1 -23 -2 -54 q1 -31 38 -22 q60 13 120 31 q34 7 33 -27 q-4 -30 -35 -41 q-40 -13 -80 -29 q-25 -10 -40 -9 l-31 8 q-21 -4 -18 -21 q-2 -13 13 -23 q65 -30 170 20 q48 13 53 -42 q-17 -54 -9 -80 q2 -36 -40 -45 l-80 -35 q-21 -8 -30 -25 q0 -15 -15 -15 q-10 2 -36 36 q-18 32 -32 80 q-6 19 -19 13 q-5 -5 -10 -16 q-23 -81 -89 -126 q-30 -18 -23 12 q91 173 87 353 q-7 49 3 90 ZM444 109 q-17 19 -45 -3 q-92 -36 -63 -93 q11 -14 41 -9 q85 25 67 105 Z" /><glyph glyph-name="A" unicode="a" d="M49 13 q24 39 51.5 90.5 q27.5 51.5 54.5 108 q27 56.5 53 115.5 q26 59 48 114.5 q22 55.5 39 103 q17 47.5 27 82.5 q0 13 -4 21 q-4 8 -8 16 q3 8 5.5 16.5 q2.5 8.5 20.5 10.5 q58 -5 86 -10.5 q28 -5.5 39 -14 q11 -8.5 12 -22 q1 -13.5 7 -34.5 q1 -8 14 -37.5 q13 -29.5 33 -72.5 q20 -43 44.5 -95 q24.5 -52 49.5 -103.5 q25 -51.5 49 -98.5 q24 -47 42 -81 q2 -5 11 -24.5 q9 -19.5 18 -42.5 q9 -23 14.5 -45.5 q5.5 -22.5 0.5 -32.5 q-3 -6 -6 -9.5 q-3 -3.5 -7.5 -5.5 q-4.5 -2 -12.5 -3 q-8 -1 -20 -3 q-29 0 -50 21 q-21 21 -39 55.5 q-18 34.5 -35 78.5 q-17 44 -38 89 l-65 -3 q-62 -3 -95 -4 q-33 -1 -52.5 0 q-19.5 1 -34.5 1.5 q-15 0.5 -42 0.5 q-14 -36 -26 -65.5 q-12 -29.5 -22.5 -56 q-10.5 -26.5 -21 -50.5 q-10.5 -24 -22.5 -49 q-10 -21 -17 -25 q-7 -4 -15 -4 q-15 0 -29.5 7 q-14.5 7 -27 17.5 q-12.5 10.5 -20.5 22 q-8 11.5 -9 21.5 ZM292 282 q51 2 104.5 4 q53.5 2 118.5 -4 q-23 53 -41 94.5 q-18 41.5 -32.5 74 q-14.5 32.5 -25.5 59 q-11 26.5 -21 49.5 q-15 -48 -40.5 -116.5 q-25.5 -68.5 -62.5 -160.5 Z" /><glyph glyph-name="B" unicode="b" d="M46 611 q0 17 11 22.5 q11 5.5 29 5.5 q11 0 39.5 8 q28.5 8 54.5 17 q54 17 104.5 19.5 q50.5 2.5 91.5 2.5 q77 0 127.5 -15.5 q50.5 -15.5 80 -40.5 q29.5 -25 42 -57.5 q12.5 -32.5 13.5 -65.5 q0 -27 -10.5 -50 q-10.5 -23 -27.5 -42 q-17 -19 -39 -33 q-22 -14 -44 -23 q42 -4 74.5 -20.5 q32.5 -16.5 54 -42 q21.5 -25.5 32.5 -58.5 q11 -33 11 -69 q0 -56 -23.5 -97 q-23.5 -41 -62.5 -68 q-39 -27 -89 -40 q-50 -13 -104 -13 q-27 0 -56 4 q-29 4 -56.5 10.5 q-27.5 6.5 -52 16 q-24.5 9.5 -43.5 21.5 l0 -2 q-3 -40 -12.5 -51 q-9.5 -11 -25.5 -11 q-18 0 -34 5 q-16 5 -28 12.5 q-12 7.5 -19 17 q-7 9.5 -7 17.5 q0 3 0 7 q0 4 1 13 q2 19 4.5 57.5 q2.5 38.5 5 91.5 q2.5 53 4 117.5 q1.5 64.5 1.5 136.5 q0 34 -1.5 60.5 q-1.5 26.5 -6.5 49.5 q-5 -4 -6.5 -5 q-1.5 -1 -2.5 -1 q-9 0 -14.5 11 q-5.5 11 -9 26 q-3.5 15 -5 30 q-1.5 15 -1.5 23 l0 3 ZM203 58 q10 20 20 20 q3 0 11.5 -3 q8.5 -3 12.5 -5 q36 -15 77.5 -24.5 q41.5 -9.5 76.5 -9.5 q48 0 83 13 q35 13 57.5 32.5 q22.5 19.5 33 43.5 q10.5 24 10.5 47 q0 34 -14 59.5 q-14 25.5 -37.5 42 q-23.5 16.5 -54.5 24.5 q-31 8 -66 8 q-40 0 -74.5 -5 q-34.5 -5 -45.5 -9 q-5 -2 -17 -7 q-12 -5 -17 -5 q-16 0 -16 19 q0 11 5 27.5 q5 16.5 13.5 31.5 q8.5 15 19 25.5 q10.5 10.5 22.5 10.5 q11 -1 29 -2 q18 -1 29 -1 q85 0 126.5 29 q41.5 29 41.5 72 q0 46 -42 75.5 q-42 29.5 -114 29.5 q-32 0 -61.5 -4 q-29.5 -4 -55.5 -10 q-26 -6 -48 -12 q-22 -6 -38 -10 q2 -4 7.5 -12 q5.5 -8 11 -17.5 q5.5 -9.5 9.5 -19 q4 -9.5 4 -17.5 q0 -10 -1 -24.5 q-1 -14.5 -2 -25.5 q-2 -40 -2 -84.5 q0 -44.5 0 -89.5 l6 -213 Z" /><glyph glyph-name="C" unicode="c" d="M693 588 q10 0 17 -7.5 q7 -7.5 8 -19.5 q-8 -19 -16.5 -38 q-8.5 -19 -17 -34.5 q-8.5 -15.5 -16 -25.5 q-7.5 -10 -13.5 -10 q-4 0 -13 2 q-9 2 -14 13 q-18 32 -44.5 52.5 q-26.5 20.5 -55 32.5 q-28.5 12 -57 16.5 q-28.5 4.5 -50.5 4.5 q-41 0 -86 -13 q-45 -13 -83 -43 q-38 -30 -63 -78.5 q-25 -48.5 -25 -118.5 q0 -73 24.5 -124.5 q24.5 -51.5 63.5 -84.5 q39 -33 88 -48 q49 -15 99 -15 q58 0 102.5 18.5 q44.5 18.5 76.5 42.5 q32 24 51.5 47 q19.5 23 27.5 32 q5 11 7.5 14 q2.5 3 5.5 3 q8 0 10.5 -14 q2.5 -14 2.5 -29 q0 -14 -2 -32.5 q-2 -18.5 -7 -37 q-5 -18.5 -13.5 -36 q-8.5 -17.5 -21.5 -30.5 q-17 -17 -44.5 -32 q-27.5 -15 -61 -26 q-33.5 -11 -71.5 -17.5 q-38 -6.5 -77 -6.5 q-36 0 -78 7.5 q-42 7.5 -83.5 24 q-41.5 16.5 -80 44 q-38.5 27.5 -68 67.5 q-29.5 40 -47.5 94.5 q-18 54.5 -18 124.5 q0 96 32.5 166.5 q32.5 70.5 86 117 q53.5 46.5 122.5 69 q69 22.5 143 22.5 q42 0 79 -8.5 q37 -8.5 68 -21.5 q31 -13 55.5 -28.5 q24.5 -15.5 41.5 -29.5 q5 -6 15 -6 Z" /><glyph glyph-name="D" unicode="d" d="M94 660 q7 0 19 -3.5 q12 -3.5 17 -3.5 q43 0 89.5 10 q46.5 10 97.5 10 q26 0 49.5 -1 q23.5 -1 43.5 -3 q80 -7 138 -40.5 q58 -33.5 96 -83 q38 -49.5 56.5 -111 q18.5 -61.5 18.5 -125.5 q0 -78 -23.5 -143.5 q-23.5 -65.5 -68.5 -113 q-45 -47.5 -109 -73.5 q-64 -26 -145 -26 q-14 0 -36 1.5 q-22 1.5 -46.5 5 q-24.5 3.5 -48.5 8 q-24 4.5 -41 10.5 q-3 -22 -17 -31.5 q-14 -9.5 -43 -9.5 q-29 0 -39 6 q-10 6 -12 20 q-5 13 -9 20.5 q-4 7.5 -8 13.5 q4 26 7 77 q3 51 5 112.5 q2 61.5 3 126 q1 64.5 1 118.5 q0 38 -1.5 60 q-1.5 22 -6.5 41 q-1 12 -7.5 20 q-6.5 8 -6.5 27 q0 10 3 22 q3 12 7 23.5 q4 11.5 9 21 q5 9.5 8 14.5 ZM203 59 q5 0 11.5 3 q6.5 3 8.5 3 q3 0 6 -1.5 q3 -1.5 9 -3.5 q23 -6 53 -10.5 q30 -4.5 54 -4.5 q43 0 90.5 12 q47.5 12 87 42 q39.5 30 65 81.5 q25.5 51.5 25.5 131.5 q0 64 -17.5 113.5 q-17.5 49.5 -49.5 83.5 q-32 34 -76.5 51 q-44.5 17 -98.5 17 q-57 0 -110 -12 q-53 -12 -91 -23 q2 -4 7.5 -11 q5.5 -7 11 -15 q5.5 -8 9.5 -16 q4 -8 4 -14 q0 -13 -1 -36.5 q-1 -23.5 -1.5 -51.5 q-0.5 -28 -1.5 -58.5 q-1 -30.5 -1 -57.5 l6 -223 Z" /><glyph glyph-name="E" unicode="e" d="M82 571 q-4 4 -11 8.5 q-7 4.5 -14 9.5 q-7 5 -11.5 11.5 q-4.5 6.5 -2.5 15.5 q5 7 8.5 14 q3.5 7 9.5 13 q6 6 16.5 10 q10.5 4 28.5 4 q8 0 38 0.5 q30 0.5 71 0.5 q33 0 79.5 1.5 q46.5 1.5 94 3.5 q47.5 2 91 4 q43.5 2 71.5 4 q4 0 10 -4.5 q6 -4.5 12.5 -11 q6.5 -6.5 12 -13.5 q5.5 -7 7.5 -12 q1 -5 5 -15.5 q4 -10.5 1.5 -21 q-2.5 -10.5 -16 -19 q-13.5 -8.5 -46.5 -8.5 q-47 0 -97 -0.5 q-50 -0.5 -98 -1 q-48 -0.5 -90.5 -1.5 q-42.5 -1 -75.5 -1 q11 -8 16.5 -21.5 q5.5 -13.5 5.5 -21.5 q0 -17 -0.5 -50 q-0.5 -33 -1.5 -96 l12 1 q23 2 55.5 2 q32.5 0 66 0 q33.5 0 65.5 0 q32 0 55 2 q8 0 19.5 1 q11.5 1 24 -0.5 q12.5 -1.5 24 -9.5 q11.5 -8 20.5 -26 q4 -8 7.5 -20.5 q3.5 -12.5 2 -24 q-1.5 -11.5 -10.5 -19.5 q-9 -8 -31 -7 l-39 3 q-14 1 -44 2 q-30 1 -64 2 q-34 1 -66.5 1 q-32.5 0 -53.5 0 q-21 -1 -29.5 8.5 q-8.5 9.5 -12.5 14.5 q-1 -35 -1.5 -81 q-0.5 -46 -0.5 -89 q0 -17 0.5 -33 q0.5 -16 0.5 -29 q24 0 71.5 0.5 q47.5 0.5 99 1 q51.5 0.5 97 1.5 q45.5 1 65.5 2 q15 1 29 -2.5 q14 -3.5 25.5 -9.5 q11.5 -6 20.5 -14 q9 -8 13 -16 q4 -7 8 -22 q4 -15 -0.5 -28.5 q-4.5 -13.5 -21.5 -21.5 q-17 -8 -55 -2 q-16 3 -45 5.5 q-29 2.5 -62 4 q-33 1.5 -67 2.5 q-34 1 -60 1 q-29 0 -59.5 -1 q-30.5 -1 -47.5 -1 q-9 0 -16 -1.5 q-7 -1.5 -13.5 -3.5 q-6.5 -2 -13.5 -3.5 q-7 -1.5 -17 -1.5 q-11 0 -24 2 q-13 2 -25 7 q-12 5 -20 12.5 q-8 7.5 -8 19.5 q0 5 0.5 10.5 q0.5 5.5 2.5 14.5 q0 3 1.5 30.5 q1.5 27.5 3.5 71.5 q2 44 4 99.5 q2 55.5 3 115 q1 59.5 0.5 118.5 q-0.5 59 -3.5 109 Z" /><glyph glyph-name="F" unicode="f" d="M202 216 q0 -21 1 -50.5 q1 -29.5 2 -59 q1 -29.5 2 -54 q1 -24.5 1 -36.5 q0 -10 -1.5 -22.5 q-1.5 -12.5 -5.5 -24 q-4 -11.5 -12.5 -19 q-8.5 -7.5 -21.5 -7.5 q-14 0 -30 3.5 q-16 3.5 -29.5 12 q-13.5 8.5 -22 21.5 q-8.5 13 -7.5 33 q2 18 3.5 53 q1.5 35 3.5 78.5 q2 43.5 3.5 93 q1.5 49.5 3 96.5 q1.5 47 2 88.5 q0.5 41.5 0.5 69.5 q0 29 -2.5 45.5 q-2.5 16.5 -7.5 30.5 q-2 6 -5.5 8.5 q-3.5 2.5 -7.5 4.5 q-4 2 -7 4 q-3 2 -3 8 q0 9 4.5 21 q4.5 12 11 22.5 q6.5 10.5 13 18.5 q6.5 8 11.5 10 q5 0 9.5 -1 q4.5 -1 14.5 -2 q10 -1 27.5 -2 q17.5 -1 49.5 -1 q36 0 78 0 q42 0 85 1 q43 1 83.5 2 q40.5 1 74.5 3 q24 1 40 2.5 q16 1.5 27 1.5 q5 0 12.5 -3 q7.5 -3 15.5 -8 q8 -5 14.5 -11.5 q6.5 -6.5 9.5 -13.5 q27 -38 4.5 -61 q-22.5 -23 -97.5 -17 q-93 3 -184.5 2.5 q-91.5 -0.5 -186.5 1.5 q2 -3 6.5 -9.5 q4.5 -6.5 9.5 -13.5 q5 -7 9 -14 q4 -7 4 -12 q0 -2 -1.5 -7.5 q-1.5 -5.5 -1.5 -7.5 q-2 -23 -2 -55.5 q0 -32.5 0 -90.5 q5 0 8.5 1.5 q3.5 1.5 8.5 3 q5 1.5 13.5 3 q8.5 1.5 23.5 1.5 q36 1 75 1 q39 0 74 0.5 q35 0.5 63.5 1.5 q28.5 1 42.5 4 q25 5 43 -10 q18 -15 27.5 -35 q9.5 -20 12 -38.5 q2.5 -18.5 -3.5 -21.5 q-3 -5 -10 -7 q-7 -2 -15 -2.5 q-8 -0.5 -15.5 0.5 q-7.5 1 -11.5 1 q-16 1 -40 2.5 q-24 1.5 -52.5 2.5 q-28.5 1 -58.5 1.5 q-30 0.5 -57.5 1 q-27.5 0.5 -50 0.5 q-22.5 0 -35.5 -1 q-23 -2 -29.5 5 q-6.5 7 -12.5 17 l0 -65 Z" /><glyph glyph-name="G" unicode="g" d="M399 315 q-3 21 4.5 27 q7.5 6 17.5 7 q12 -4 27 -5.5 q15 -1.5 30 -1.5 q52 0 82 0 q30 0 55 2 q10 1 19.5 4.5 q9.5 3.5 16.5 3.5 q6 0 19 -7 q13 -7 26 -17 q13 -10 22.5 -21.5 q9.5 -11.5 9.5 -20.5 q0 -21 -6 -41.5 q-6 -20.5 -6 -32.5 q0 -15 1 -44 q1 -29 1.5 -59.5 q0.5 -30.5 1.5 -57 q1 -26.5 1 -36.5 q0 -5 -2 -13 q-2 -8 -5 -16 q-3 -8 -6 -14 q-3 -6 -6 -7 q-14 -13 -25 -14 q-11 -1 -27 9 q-7 6 -13 12 q-6 6 -11 24 q-14 -6 -31 -14.5 q-17 -8.5 -41.5 -16.5 q-24.5 -8 -60.5 -14 q-36 -6 -89 -6 q-86 0 -151.5 31.5 q-65.5 31.5 -110 82.5 q-44.5 51 -67.5 115 q-23 64 -23 128 q0 103 34.5 175.5 q34.5 72.5 89 118.5 q54.5 46 121.5 67 q67 21 132 21 q25 0 50 -3 q25 -3 52 -10 q27 -7 57.5 -19 q30.5 -12 68.5 -29 q3 -1 10 -1 q5 0 9 0.5 q4 0.5 7 0.5 q14 -11 14 -23 q0 -4 -2.5 -11.5 q-2.5 -7.5 -6 -16 q-3.5 -8.5 -6.5 -16.5 q-3 -8 -5 -13 q-14 -32 -22.5 -44.5 q-8.5 -12.5 -18.5 -12.5 q-13 0 -27 20 q-12 16 -32.5 29.5 q-20.5 13.5 -46 23.5 q-25.5 10 -54 15.5 q-28.5 5.5 -56.5 5.5 q-66 0 -115 -26 q-49 -26 -80.5 -66.5 q-31.5 -40.5 -47 -88.5 q-15.5 -48 -15.5 -93 q0 -33 10 -77.5 q10 -44.5 38.5 -85.5 q28.5 -41 79.5 -69.5 q51 -28.5 133 -28.5 q18 0 52 3 q34 3 67.5 14.5 q33.5 11.5 58.5 33 q25 21.5 25 58.5 q0 27 1 55 q1 28 1 50 q-9 0 -31.5 -1 q-22.5 -1 -49 -2 q-26.5 -1 -50.5 -2 q-24 -1 -35 -2 l-21 -3 q-5 -1 -12 -1 q-7 0 -15 12.5 q-8 12.5 -15 54.5 Z" /><glyph glyph-name="H" unicode="h" d="M75 670 q2 6 17.5 11 q15.5 5 32.5 6 q18 0 33 -6.5 q15 -6.5 26.5 -15 q11.5 -8.5 17.5 -17 q6 -8.5 6 -13.5 q1 -8 -3 -21.5 q-4 -13.5 -5 -23.5 q-2 -23 -3 -45.5 q-1 -22.5 -1 -48 q0 -25.5 0 -56 q0 -30.5 0 -68.5 q67 0 128.5 1 q61.5 1 132.5 4 q8 0 19.5 1 q11.5 1 24 2 q12.5 1 23.5 2 q11 1 18 1 q9 0 27.5 -4 q18.5 -4 28.5 -18 q0 79 -0.5 139 q-0.5 60 -2.5 99 q-2 27 -7 43.5 q-5 16.5 -6 27.5 q1 6 17 11 q16 5 33 6 q19 0 34.5 -6.5 q15.5 -6.5 26 -15 q10.5 -8.5 16.5 -17.5 q6 -9 6 -14 q-2 -20 -7 -46 q-5 -26 -5 -60 q0 -30 0 -52 q0 -22 -0.5 -39 q-0.5 -17 -0.5 -30 q0 -13 0 -25 q0 -27 1.5 -70.5 q1.5 -43.5 3 -92.5 q1.5 -49 3 -98.5 q1.5 -49.5 1.5 -89.5 q0 -26 -2.5 -42 q-2.5 -16 -7 -25 q-4.5 -9 -11 -12 q-6.5 -3 -14.5 -3 q-52 0 -70.5 19.5 q-18.5 19.5 -18.5 60.5 q2 23 3.5 55 q1.5 32 2.5 67.5 q1 35.5 1.5 71.5 q0.5 36 1.5 67 q-12 -1 -33 -2 q-21 -1 -46.5 -1.5 q-25.5 -0.5 -52.5 -1 q-27 -0.5 -51 -0.5 q-9 0 -30.5 0 q-21.5 0 -48.5 0.5 q-27 0.5 -55.5 0.5 q-28.5 0 -51.5 0 q-18 0 -31 19 q0 -17 1 -50.5 q1 -33.5 2.5 -73 q1.5 -39.5 2.5 -80 q1 -40.5 1 -71.5 q0 -47 -8 -66 q-8 -19 -37 -19 q-27 0 -43.5 7.5 q-16.5 7.5 -25.5 17.5 q-9 10 -11 20 q-2 10 -1 15 q4 33 9 147 q5 114 5 319 q0 30 0 58.5 q0 28.5 -2 52.5 q-2 23 -4 37.5 q-2 14.5 -4 23.5 q-2 9 -3.5 15 q-1.5 6 -2.5 12 Z" /><glyph glyph-name="I" unicode="i" d="M83 670 q2 6 19 11 q17 5 33 6 q20 0 36.5 -6.5 q16.5 -6.5 28.5 -15 q12 -8.5 18.5 -17.5 q6.5 -9 6.5 -14 q0 -4 -1 -11 q-1 -7 -2.5 -14.5 q-1.5 -7.5 -3 -14.5 q-1.5 -7 -1.5 -11 q-1 -29 -2 -66.5 q-1 -37.5 -1.5 -78 q-0.5 -40.5 -1 -81.5 q-0.5 -41 -0.5 -77 q0 -27 0.5 -64.5 q0.5 -37.5 1.5 -76.5 q1 -39 1.5 -74.5 q0.5 -35.5 0.5 -56.5 q0 -20 -3 -32.5 q-3 -12.5 -8.5 -19.5 q-5.5 -7 -12.5 -9 q-7 -2 -16 -2 q-13 0 -28 5 q-15 5 -28 14 q-13 9 -22 22 q-9 13 -9 28 q4 33 7 143.5 q3 110.5 3 285.5 q0 81 -5.5 138 q-5.5 57 -10.5 89 Z" /><glyph glyph-name="J" unicode="j" d="M402 667 q3 17 49 18 q23 -1 40.5 -7.5 q17.5 -6.5 29 -14.5 q11.5 -8 17.5 -16 q6 -8 6 -12 q0 -8 -2 -15.5 q-2 -7.5 -4 -21.5 q-8 -88 -5.5 -175.5 q2.5 -87.5 2.5 -181.5 q0 -68 -17 -123 q-17 -55 -51 -95 q-34 -40 -86 -61.5 q-52 -21.5 -121 -21.5 q-45 0 -84.5 9 q-39.5 9 -69 27.5 q-29.5 18.5 -46.5 47 q-17 28.5 -17 67.5 q0 23 5 39 q5 16 15 16 q1 0 15.5 -14.5 q14.5 -14.5 39.5 -32.5 q25 -18 59 -32.5 q34 -14.5 75 -14.5 q47 0 80 15.5 q33 15.5 54 41.5 q21 26 31 60.5 q10 34.5 11 72.5 q0 92 -0.5 184 q-0.5 92 -9.5 190 q-1 9 -3 15 q-2 6 -4 11.5 q-2 5.5 -4.5 11 q-2.5 5.5 -4.5 13.5 Z" /><glyph glyph-name="K" unicode="k" d="M73 670 q2 6 16.5 11 q14.5 5 31.5 6 q41 -7 62.5 -24 q21.5 -17 21.5 -28 q0 -14 -3 -27.5 q-3 -13.5 -5 -35.5 q0 -34 -3 -88.5 q-3 -54.5 -1 -109.5 q39 22 83.5 53.5 q44.5 31.5 87.5 66.5 q43 35 80.5 70 q37.5 35 61.5 65 q6 8 10 17.5 q4 9.5 8 17.5 q4 8 9 13.5 q5 5.5 13 5.5 q12 0 28 -9.5 q16 -9.5 30.5 -23 q14.5 -13.5 24.5 -29.5 q10 -16 10 -28 q0 -11 -192 -152 q-10 -7 -27.5 -19 q-17.5 -12 -37 -25 q-19.5 -13 -37.5 -25.5 q-18 -12.5 -29 -20.5 q34 -24 76.5 -59.5 q42.5 -35.5 88.5 -72.5 q46 -37 93 -71.5 q47 -34.5 91 -57.5 q13 -7 18.5 -13.5 q5.5 -6.5 5.5 -26.5 q-3 -45 -22.5 -77 q-19.5 -32 -51.5 -32 q-6 0 -27.5 19 q-21.5 19 -52.5 49.5 q-31 30.5 -67 68 q-36 37.5 -72 74 q-36 36.5 -68.5 68 q-32.5 31.5 -54.5 50.5 l-44 35 q-9 -9 -18.5 -14.5 q-9.5 -5.5 -16.5 -14.5 q0 -24 1 -61.5 q1 -37.5 2 -76.5 q1 -39 2 -74 q1 -35 1 -55 q0 -20 -3.5 -32.5 q-3.5 -12.5 -9 -19.5 q-5.5 -7 -11.5 -9.5 q-6 -2.5 -12 -2.5 q-14 0 -34 7 q-35 14 -44 27 q-9 13 -9 39 q2 15 4 52 q2 37 4 93.5 q2 56.5 3 132 q1 75.5 1 166.5 q0 38 -0.5 72.5 q-0.5 34.5 -2.5 63.5 q-2 29 -6.5 44 q-4.5 15 -6.5 28 Z" /><glyph glyph-name="L" unicode="l" d="M77 667 q1 5 15 12 q14 7 36 8 q42 -10 65 -22 q23 -12 23 -29 q0 -3 -1.5 -12 q-1.5 -9 -3 -19.5 q-1.5 -10.5 -3 -20.5 q-1.5 -10 -1.5 -15 q0 -5 -0.5 -38.5 q-0.5 -33.5 -1.5 -82 q-1 -48.5 -2 -106 q-1 -57.5 -2 -111.5 q-1 -54 -1.5 -98 q-0.5 -44 -0.5 -65 q10 0 39.5 0.5 q29.5 0.5 69.5 1.5 q40 1 85 2 q45 1 85.5 2 q40.5 1 71 1.5 q30.5 0.5 42.5 0.5 q9 0 21 -2.5 q12 -2.5 24.5 -8 q12.5 -5.5 23 -14.5 q10.5 -9 15.5 -23 q10 -17 6.5 -30.5 q-3.5 -13.5 -14.5 -22.5 q-11 -9 -26.5 -14 q-15.5 -5 -29.5 -5 l-23 3 q-42 5 -102.5 7.5 q-60.5 2.5 -117.5 2.5 q-27 0 -57.5 -0.5 q-30.5 -0.5 -58.5 -1.5 q-28 -1 -49 -1.5 q-21 -0.5 -29 -1.5 q-11 -2 -19.5 -6.5 q-8.5 -4.5 -19.5 -4.5 q-8 0 -19 12 q-11 12 -21.5 29.5 q-10.5 17.5 -19.5 35.5 q-9 18 -13 30 q3 10 7.5 16.5 q4.5 6.5 9 13.5 q4.5 7 7.5 16.5 q3 9.5 4 25.5 q5 103 3.5 207 q-1.5 104 -1.5 214 q0 24 -2 40 q-2 16 -4.5 28.5 q-2.5 12.5 -5.5 23 q-3 10.5 -4 22.5 Z" /><glyph glyph-name="M" unicode="m" d="M115 659 q1 7 11 12.5 q10 5.5 40 7.5 q31 0 51.5 -5.5 q20.5 -5.5 34 -19 q13.5 -13.5 23.5 -35 q10 -21.5 22 -53.5 q64 -160 100 -248.5 q36 -88.5 50 -120.5 q10 19 24.5 50.5 q14.5 31.5 31 69 q16.5 37.5 33 79 q16.5 41.5 30.5 81 q14 39.5 24 74 q10 34.5 14 58.5 q0 15 -2 27 q-2 12 -2 21.5 q0 9.5 5 15.5 q5 6 19 8 q7 -1 27 -6 q20 -5 41.5 -11.5 q21.5 -6.5 39 -13.5 q17.5 -7 20.5 -12 q-1 -34 2.5 -85 q3.5 -51 10 -109.5 q6.5 -58.5 14.5 -119.5 q8 -61 16 -114.5 q8 -53.5 15.5 -95.5 q7.5 -42 12.5 -62 q6 -13 7 -18 q1 -5 1 -10 q0 -35 -10.5 -56.5 q-10.5 -21.5 -45.5 -23.5 q-8 0 -20 7.5 q-12 7.5 -22.5 17.5 q-10.5 10 -17.5 21 q-7 11 -5 19 q-11 32 -18.5 88.5 q-7.5 56.5 -13.5 122.5 q-6 66 -11.5 135 q-5.5 69 -11.5 126 q-15 -46 -37 -100 q-22 -54 -45 -108 q-23 -54 -44.5 -105.5 q-21.5 -51.5 -35.5 -91.5 q-6 -14 -10 -19.5 q-4 -5.5 -15 -5.5 q-6 0 -17.5 1 q-11.5 1 -24 4.5 q-12.5 3.5 -23 9 q-10.5 5.5 -15.5 14.5 q-1 2 0 4 q1 2 1 4 q1 4 -0.5 5 q-1.5 1 -6.5 15 q-7 16 -19 45.5 q-12 29.5 -26.5 66 q-14.5 36.5 -31 77 q-16.5 40.5 -31.5 79 q-15 38.5 -28.5 71 q-13.5 32.5 -22.5 53.5 q-3 -56 -9.5 -129.5 q-6.5 -73.5 -15 -147 q-8.5 -73.5 -16.5 -138 q-8 -64.5 -14 -100.5 q-8 -20 -13 -25 q-5 -5 -16 -5 q-14 0 -29 4 q-15 4 -28 11.5 q-13 7.5 -21.5 18.5 q-8.5 11 -9.5 25 q0 5 8 22.5 q8 17.5 11 50.5 q7 34 15 78 q8 44 15.5 92 q7.5 48 14.5 97.5 q7 49.5 12 94.5 q5 45 8 82 q3 37 3 60 q0 23 -4 36.5 q-4 13.5 -19 31.5 Z" /><glyph glyph-name="N" unicode="n" d="M59 659 q0 9 20.5 12.5 q20.5 3.5 42.5 6.5 q23 -4 41.5 -8.5 q18.5 -4.5 35 -13 q16.5 -8.5 32 -23 q15.5 -14.5 32.5 -39.5 q20 -30 53.5 -78.5 q33.5 -48.5 72.5 -103.5 q39 -55 79 -110.5 q40 -55.5 71.5 -98.5 q31.5 -43 50 -69 q18.5 -26 15.5 -21 l0 216 q-1 43 -2 89 q-1 46 -2.5 88 q-1.5 42 -4 76 q-2.5 34 -5.5 51 q-2 9 -3 13.5 q-1 4.5 -4 12.5 q2 22 41 23 q21 -3 39.5 -9 q18.5 -6 31 -14.5 q12.5 -8.5 18.5 -18.5 q6 -10 3 -22 l-3 -35 q-3 -37 -5.5 -95 q-2.5 -58 -4 -123.5 q-1.5 -65.5 -2 -131.5 q-0.5 -66 -0.5 -120 q0 -17 1 -36 q1 -19 2.5 -35 q1.5 -16 2.5 -28 q1 -12 1 -16 q0 -46 -38 -46 q-12 0 -28 3 q-16 3 -34 11 q-24 13 -35 20.5 q-11 7.5 -15.5 13.5 q-4.5 6 -6.5 12 q-2 6 -8 15 q3 -4 -15 21.5 q-18 25.5 -48.5 70.5 q-30.5 45 -69.5 102 q-39 57 -79.5 115.5 q-40.5 58.5 -78.5 111.5 q-38 53 -66 90 l0 -76 q2 -142 6 -252 q4 -110 4 -188 q0 -22 -3.5 -36 q-3.5 -14 -9 -21.5 q-5.5 -7.5 -12.5 -10 q-7 -2.5 -14 -2.5 q-44 0 -60.5 15 q-16.5 15 -22.5 35 l3 32 q3 34 5 75.5 q2 41.5 3 92 q1 50.5 1.5 112 q0.5 61.5 0.5 136.5 q0 31 0 53 q0 22 -1 39 q-1 17 -2 31.5 q-1 14.5 -3 29.5 q-15 14 -18.5 29.5 q-3.5 15.5 -4.5 26.5 Z" /><glyph glyph-name="O" unicode="o" d="M621 614 q6 -12 3.5 -20 q-2.5 -8 -4.5 -22 q13 0 39 -29 q21 -24 37 -53.5 q16 -29.5 27.5 -61.5 q11.5 -32 17 -64.5 q5.5 -32.5 5.5 -62.5 q0 -69 -20 -132.5 q-20 -63.5 -62 -112.5 q-42 -49 -107 -78 q-65 -29 -155 -29 q-70 0 -133.5 20 q-63.5 20 -111.5 63 q-48 43 -76.5 109.5 q-28.5 66.5 -28.5 158.5 q0 81 25.5 150.5 q25.5 69.5 71.5 120.5 q46 51 109 80 q63 29 138 29 q38 0 75.5 -7 q37.5 -7 69 -17 q31.5 -10 53 -21.5 q21.5 -11.5 27.5 -20.5 ZM581 487 q-9 13 -11 22.5 q-2 9.5 2 21.5 q-2 -1 -3.5 -2 q-1.5 -1 -4.5 -1 q-8 0 -16 1 q-8 1 -16 9 q-20 14 -54.5 28 q-34.5 14 -78.5 14 q-47 0 -91 -18 q-44 -18 -78 -53.5 q-34 -35.5 -54 -88 q-20 -52.5 -20 -120.5 q0 -67 19 -114.5 q19 -47.5 52 -78 q33 -30.5 76.5 -44.5 q43.5 -14 92.5 -14 q70 0 117.5 25 q47.5 25 76 64 q28.5 39 40.5 86.5 q12 47.5 12 93.5 q0 23 -6.5 48 q-6.5 25 -16 48 q-9.5 23 -20 42.5 q-10.5 19.5 -18.5 30.5 Z" /><glyph glyph-name="P" unicode="p" d="M87 522 q-9 -6 -19 3.5 q-10 9.5 -17.5 24.5 q-7.5 15 -10 32 q-2.5 17 3.5 27 q2 4 4 4 q2 0 6.5 0 q4.5 0 12 1.5 q7.5 1.5 21.5 8.5 q27 13 62 25.5 q35 12.5 74 20.5 q39 8 81 11 q42 3 85 -2 q143 -18 208.5 -84.5 q65.5 -66.5 65.5 -167.5 q0 -62 -22.5 -110 q-22.5 -48 -62.5 -80.5 q-40 -32.5 -95 -49 q-55 -16.5 -120 -16.5 q-21 0 -47 1 q-26 1 -49.5 6.5 q-23.5 5.5 -42 17 q-18.5 11.5 -25.5 32.5 q0 -23 1 -54 q1 -31 2 -61 q1 -30 2 -56 q1 -26 1 -38 q0 -24 -3.5 -38 q-3.5 -14 -8.5 -22 q-5 -8 -12.5 -10.5 q-7.5 -2.5 -14.5 -2.5 q-24 0 -40.5 5.5 q-16.5 5.5 -27 13.5 q-10.5 8 -15.5 16 q-5 8 -6 13 q7 57 12 164.5 q5 107.5 5 248.5 q0 35 -1.5 63.5 q-1.5 28.5 -6.5 52.5 ZM201 296 q13 3 26 -3.5 q13 -6.5 36 -16.5 q16 -6 38.5 -8.5 q22.5 -2.5 33.5 -2.5 q112 0 169 42.5 q57 42.5 57 122.5 q0 31 -12 59 q-12 28 -35.5 49.5 q-23.5 21.5 -58.5 34 q-35 12.5 -81 12.5 q-16 0 -39.5 -0.5 q-23.5 -0.5 -51 -4 q-27.5 -3.5 -57 -11.5 q-29.5 -8 -56.5 -22 q1 -6 6.5 -19 q5.5 -13 12 -29 q6.5 -16 11.5 -34 q5 -18 5 -34 q0 -6 -0.5 -25.5 q-0.5 -19.5 -1.5 -41.5 q-1 -22 -1.5 -42 q-0.5 -20 -0.5 -26 Z" /><glyph glyph-name="Q" unicode="q" d="M622 610 q0 -11 -4 -20 q-4 -9 -12 -22 q2 1 7 1 q9 0 23.5 -6.5 q14.5 -6.5 25.5 -15.5 q20 -24 36 -53.5 q16 -29.5 27.5 -62 q11.5 -32.5 17.5 -66 q6 -33.5 6 -64.5 q0 -49 -12.5 -108 q-12.5 -59 -49.5 -113 q20 -13 36.5 -21 q16.5 -8 30.5 -14 q10 -5 15 -12.5 q5 -7.5 7 -16 q2 -8.5 2 -16 q0 -7.5 0 -11.5 q0 -10 -9 -23 q-9 -13 -22 -25 q-13 -12 -26.5 -20.5 q-13.5 -8.5 -23.5 -8.5 q-8 0 -17 8 q-9 8 -20.5 20.5 q-11.5 12.5 -24.5 28.5 q-13 16 -29 32 q-24 -16 -51 -26 q-27 -10 -53.5 -16 q-26.5 -6 -52 -8 q-25.5 -2 -46.5 -2 q-66 0 -129 19 q-63 19 -112 61 q-49 42 -78.5 109 q-29.5 67 -29.5 163 q0 81 25.5 150.5 q25.5 69.5 71.5 120 q46 50.5 109 79.5 q63 29 138 29 q56 0 105 -17.5 q49 -17.5 98 -32.5 q11 -4 16 -4.5 q5 -0.5 5 -15.5 ZM322 207 q1 4 5.5 10 q4.5 6 11.5 12 q7 6 16.5 10 q9.5 4 20.5 4 q16 0 41 -9 q25 -9 54 -24 q29 -15 61 -33.5 q32 -18.5 62 -37.5 q16 23 26 48.5 q10 25.5 15 50 q5 24.5 7 45.5 q2 21 2 35 q1 42 -9 74 q-10 32 -23.5 56 q-13.5 24 -26 40.5 q-12.5 16.5 -16.5 25.5 q-2 5 0 8.5 q2 3.5 3 5.5 q-5 -2 -8.5 -2 q-3.5 0 -8.5 4 q-24 20 -65 35 q-41 15 -89 15 q-47 0 -91 -18 q-44 -18 -78 -53.5 q-34 -35.5 -54 -87.5 q-20 -52 -20 -121 q0 -67 19.5 -114.5 q19.5 -47.5 52.5 -78 q33 -30.5 76.5 -44.5 q43.5 -14 91.5 -14 q46 0 77.5 11 q31.5 11 48.5 19 q-33 27 -71 49.5 q-38 22.5 -88 45.5 q-8 3 -16 5.5 q-8 2.5 -14.5 6 q-6.5 3.5 -10.5 8.5 q-4 5 -2 13 Z" /><glyph glyph-name="R" unicode="r" d="M44 602 q-4 7 -2 12.5 q2 5.5 10 6.5 q12 -4 26 -2 q14 2 30 7 q16 5 31.5 11 q15.5 6 30.5 11 q57 18 110.5 23.5 q53.5 5.5 99.5 5.5 q43 0 89 -10.5 q46 -10.5 84 -35 q38 -24.5 62.5 -65 q24.5 -40.5 24.5 -99.5 q0 -56 -22 -94 q-22 -38 -53.5 -62 q-31.5 -24 -66 -35.5 q-34.5 -11.5 -59.5 -14.5 q23 -19 52.5 -44 q29.5 -25 59 -50 q29.5 -25 56 -46 q26.5 -21 44.5 -31 l35 -23 q8 -7 14 -12 q6 -5 6 -7 q0 -23 -9 -44 q-9 -21 -22 -37.5 q-13 -16.5 -27 -26.5 q-14 -10 -23 -10 q-7 -1 -12 3.5 q-5 4.5 -13 15.5 q-18 22 -40.5 51 q-22.5 29 -48 59.5 q-25.5 30.5 -53 61 q-27.5 30.5 -55.5 54.5 q-32 29 -59.5 47 q-27.5 18 -59.5 18 q-21 0 -29.5 11 q-8.5 11 -14.5 45 q-1 6 -1.5 14 q-0.5 8 2.5 15 q3 7 10 12 q7 5 20 5 q22 0 44.5 -3 q22.5 -3 36.5 -3 q31 0 64 6.5 q33 6.5 60 21 q27 14.5 44.5 39 q17.5 24.5 17.5 60.5 q0 31 -12.5 53.5 q-12.5 22.5 -34 37.5 q-21.5 15 -50.5 22 q-29 7 -62 7 q-18 0 -43 -2.5 q-25 -2.5 -53 -7 q-28 -4.5 -57 -12.5 q-29 -8 -55 -18 q2 -5 7.5 -13.5 q5.5 -8.5 11.5 -18.5 q6 -10 10.5 -20 q4.5 -10 4.5 -19 q0 -2 -1 -8 q-1 -6 -2 -8 q-2 -35 -2 -88 q0 -53 0 -122 q0 -26 1 -60 q1 -34 2.5 -67.5 q1.5 -33.5 2.5 -61.5 q1 -28 1 -41 q0 -44 -10.5 -58.5 q-10.5 -14.5 -23.5 -14.5 q-15 0 -32 3.5 q-17 3.5 -31.5 11.5 q-14.5 8 -22.5 21 q-8 13 -5 32 q3 29 5.5 75.5 q2.5 46.5 4 100 q1.5 53.5 2.5 108.5 q1 55 1 101 q0 38 -1 67.5 q-1 29.5 -6 54.5 q-7 -4 -14 6.5 q-7 10.5 -13 25.5 q-6 15 -10.5 30.5 q-4.5 15.5 -6.5 21.5 Z" /><glyph glyph-name="S" unicode="s" d="M624 594 q14 0 11 -17 q-3 -8 -11.5 -26 q-8.5 -18 -19 -37.5 q-10.5 -19.5 -21.5 -34 q-11 -14.5 -18 -14.5 q-8 0 -14 6 q-6 6 -14 23 q-13 23 -33.5 41.5 q-20.5 18.5 -45.5 31 q-25 12.5 -53 19 q-28 6.5 -55 6.5 q-29 0 -57 -5.5 q-28 -5.5 -50 -17.5 q-22 -12 -35.5 -31 q-13.5 -19 -13.5 -45 q0 -25 9.5 -43 q9.5 -18 33 -31.5 q23.5 -13.5 62 -24.5 q38.5 -11 96.5 -21 q60 -11 108.5 -25 q48.5 -14 83.5 -37 q35 -23 54 -58 q19 -35 19 -89 q0 -63 -25 -104 q-25 -41 -67 -66 q-42 -25 -96.5 -35 q-54.5 -10 -114.5 -10 q-27 0 -63.5 4 q-36.5 4 -73.5 13 q-37 9 -69.5 23.5 q-32.5 14.5 -51.5 35.5 q-11 11 -19.5 28.5 q-8.5 17.5 -14.5 37.5 q-6 20 -9.5 40.5 q-3.5 20.5 -3.5 38.5 q0 9 3 16 q3 7 12 7 q5 0 13 -6.5 q8 -6.5 15 -14.5 q18 -17 43.5 -38 q25.5 -21 58.5 -39.5 q33 -18.5 73.5 -31.5 q40.5 -13 88.5 -13 q89 0 135 31.5 q46 31.5 46 85.5 q0 24 -9 40 q-9 16 -32.5 28.5 q-23.5 12.5 -65 24 q-41.5 11.5 -106.5 26.5 q-51 11 -96.5 24 q-45.5 13 -79 35 q-33.5 22 -53 56.5 q-19.5 34.5 -19.5 88.5 q1 47 22.5 82.5 q21.5 35.5 58 59.5 q36.5 24 85 36.5 q48.5 12.5 103.5 12.5 q73 0 123 -17.5 q50 -17.5 94 -43.5 q11 -8 28 -18.5 q17 -10.5 31 -7.5 Z" /><glyph glyph-name="T" unicode="t" d="M328 564 q-85 -1 -140 -6.5 q-55 -5.5 -91 -11.5 q-14 -2 -26 19 q-12 21 -23 46 q-14 33 3 39.5 q17 6.5 66 5.5 q19 0 57 -0.5 q38 -0.5 87 -1 q49 -0.5 105 0 q56 0.5 111 2 q55 1.5 104.5 4 q49.5 2.5 86.5 7.5 q8 3 19.5 -3 q11.5 -6 22.5 -16.5 q11 -10.5 19 -23 q8 -12.5 8 -22.5 q3 -11 -0.5 -22 q-3.5 -11 -15 -18.5 q-11.5 -7.5 -31 -11 q-19.5 -3.5 -49.5 0.5 q-55 5 -106.5 7.5 q-51.5 2.5 -115.5 4.5 q5 -13 15 -32.5 q10 -19.5 10 -35.5 q0 -7 -3 -37 q-3 -30 -3 -74 q0 -48 1 -97 q1 -49 2.5 -94.5 q1.5 -45.5 2.5 -86 q1 -40.5 1 -72.5 q0 -26 -2.5 -42.5 q-2.5 -16.5 -6.5 -25.5 q-4 -9 -9 -12.5 q-5 -3.5 -11 -3.5 q-12 0 -27 3 q-15 3 -29.5 9.5 q-14.5 6.5 -25.5 16 q-11 9.5 -15 22.5 q4 31 7 76.5 q3 45.5 5.5 103 q2.5 57.5 4 124 q1.5 66.5 1.5 139.5 q0 35 -2 68 q-2 33 -7 51 Z" /><glyph glyph-name="U" unicode="u" d="M80 596 q-1 7 -4 15 q-3 8 -5.5 16 q-2.5 8 -3.5 15.5 q-1 7.5 3 15.5 q7 15 29 15.5 q22 0.5 46 -6.5 q24 -7 43 -18 q19 -11 19 -20 q0 4 -1 -11.5 q-1 -15.5 -2.5 -44 q-1.5 -28.5 -3 -66 q-1.5 -37.5 -3 -78.5 q-1.5 -41 -2.5 -81.5 q-1 -40.5 -1 -73.5 q0 -43 6.5 -82.5 q6.5 -39.5 27.5 -69.5 q21 -30 60.5 -48 q39.5 -18 105.5 -18 q68 0 108 18 q40 18 60 60.5 q20 42.5 24.5 112.5 q4.5 70 0.5 174 q-2 47 -2.5 100.5 q-0.5 53.5 -5.5 98.5 q-2 13 -6 21 q-4 8 -6 17 q6 16 29 18 q23 2 48 -5 q25 -7 45 -20 q20 -13 20 -27 q0 -5 -3 -9.5 q-3 -4.5 -5 -17.5 q0 -5 -0.5 -24.5 q-0.5 -19.5 -1.5 -47 q-1 -27.5 -2.5 -61 q-1.5 -33.5 -2.5 -69 q-1 -35.5 -1.5 -69 q-0.5 -33.5 -0.5 -61.5 q0 -86 -18.5 -146 q-18.5 -60 -56 -98 q-37.5 -38 -93.5 -55.5 q-56 -17.5 -131 -17.5 q-82 0 -140 19.5 q-58 19.5 -95 59.5 q-37 40 -54.5 99.5 q-17.5 59.5 -17.5 140.5 q0 64 -0.5 112 q-0.5 48 -1 86 q-0.5 38 -1.5 69.5 q-1 31.5 -3 61.5 Z" /><glyph glyph-name="V" unicode="v" d="M42 645 q1 6 14 17 q13 11 36 11 q12 0 25.5 -2 q13.5 -2 26.5 -5 q23 -8 34.5 -16.5 q11.5 -8.5 17 -19 q5.5 -10.5 9 -24.5 q3.5 -14 11.5 -32 q6 -13 19 -45.5 q13 -32.5 30.5 -76 q17.5 -43.5 37.5 -93.5 q20 -50 40 -98.5 q20 -48.5 38 -91 q18 -42.5 32 -69.5 q15 29 37 75 q22 46 46 99 q24 53 48 109.5 q24 56.5 44.5 106.5 q20.5 50 34.5 89.5 q14 39.5 18 59.5 q4 18 7.5 28.5 q3.5 10.5 22.5 10.5 q13 0 30.5 -8 q17.5 -8 33.5 -19.5 q16 -11.5 27 -25.5 q11 -14 11 -26 q0 -9 -12 -31 q-19 -34 -45.5 -86 q-26.5 -52 -56 -111 q-29.5 -59 -59 -119.5 q-29.5 -60.5 -54 -113 q-24.5 -52.5 -41.5 -91.5 q-17 -39 -21 -53 q0 -18 -4 -27.5 q-4 -9.5 -13 -14 q-9 -4.5 -25 -5 q-16 -0.5 -40 -0.5 q-23 0 -39 10 q-16 10 -19 18 q-2 6 -11.5 35.5 q-9.5 29.5 -32.5 78.5 q-23 54 -52.5 122 q-29.5 68 -61 136 q-31.5 68 -61 129.5 q-29.5 61.5 -50.5 102.5 q-11 19 -19 35.5 q-8 16.5 -14 30.5 Z" /><glyph glyph-name="W" unicode="w" d="M768 654 q8 21 34 21 q41 -5 66 -24.5 q25 -19.5 25 -41.5 q0 -3 -1.5 -9.5 q-1.5 -6.5 -3.5 -14 q-2 -7.5 -4 -14.5 q-2 -7 -3 -11 q-32 -102 -64.5 -197.5 q-32.5 -95.5 -57.5 -167.5 q-7 -19 -16 -44.5 q-9 -25.5 -18 -50.5 q-9 -25 -16.5 -46 q-7.5 -21 -10.5 -32 q-3 -10 -3.5 -22.5 q-0.5 -12.5 -2 -24 q-1.5 -11.5 -6 -19 q-4.5 -7.5 -13.5 -7.5 q-8 0 -25 1.5 q-17 1.5 -34.5 7 q-17.5 5.5 -31 16.5 q-13.5 11 -13.5 29 q0 2 -0.5 3.5 q-0.5 1.5 -0.5 3.5 q-6 18 -15 49.5 q-9 31.5 -19.5 68.5 q-10.5 37 -21.5 77 q-11 40 -20.5 75 q-9.5 35 -17 62.5 q-7.5 27.5 -10.5 39.5 q-9 -33 -25.5 -83 q-16.5 -50 -35 -104 q-18.5 -54 -35 -104 q-16.5 -50 -24.5 -82 q-2 -8 -2 -15.5 q0 -7.5 -5 -9.5 q-5 -6 -13 -12.5 q-8 -6.5 -19 -12 q-11 -5.5 -25 -8 q-14 -2.5 -30 -0.5 q-7 1 -16 16.5 q-9 15.5 -21 59.5 q-13 42 -25.5 85.5 q-12.5 43.5 -26.5 93.5 q-14 50 -30 110 q-16 60 -36 134 q-15 56 -29.5 101.5 q-14.5 45.5 -33.5 98.5 q1 12 12 16 q11 4 25 7 q16 0 33 -4 q17 -4 31 -11 q14 -7 23 -16.5 q9 -9.5 10 -20.5 q1 -11 6.5 -41.5 q5.5 -30.5 15 -73 q9.5 -42.5 21.5 -93 q12 -50.5 25 -100.5 q13 -50 26.5 -96 q13.5 -46 25.5 -80 q9 21 21.5 55 q12.5 34 25.5 73 q13 39 26 79.5 q13 40.5 23.5 74.5 q10.5 34 17 59 q6.5 25 7.5 33 q3 6 1.5 16 q-1.5 10 -2.5 18 q3 14 21.5 17.5 q18.5 3.5 40 0 q21.5 -3.5 39 -11 q17.5 -7.5 17.5 -14.5 q0 -2 -0.5 -5 q-0.5 -3 -0.5 -6 q0 -6 9 -44 q9 -38 24 -93.5 q15 -55.5 34.5 -123 q19.5 -67.5 40.5 -131.5 q16 40 36.5 99.5 q20.5 59.5 40.5 124 q20 64.5 35.5 127 q15.5 62.5 21.5 109.5 q2 18 2.5 33 q0.5 15 0.5 27 Z" /><glyph glyph-name="X" unicode="x" d="M584 682 q17 1 32.5 -8 q15.5 -9 27.5 -22.5 q12 -13.5 19.5 -29 q7.5 -15.5 7.5 -26.5 q0 -8 -6 -17 q-6 -9 -25 -29 q-26 -26 -72 -80 q-46 -54 -115 -139 q24 -29 47 -55.5 q23 -26.5 46 -51.5 q23 -25 47 -49.5 q24 -24.5 51 -49.5 q15 -15 30.5 -27 q15.5 -12 28.5 -26 q3 -3 9 -9 q6 -6 9.5 -14.5 q3.5 -8.5 2.5 -20 q-1 -11.5 -10 -26.5 q-1 -1 -8 -9.5 q-7 -8.5 -18 -18.5 q-11 -10 -24.5 -18 q-13.5 -8 -25.5 -8 q-13 5 -24.5 15.5 q-11.5 10.5 -19.5 22.5 q-45 60 -97 127 q-52 67 -112 142 q-43 -54 -73.5 -92.5 q-30.5 -38.5 -54.5 -68 q-24 -29.5 -43.5 -53.5 q-19.5 -24 -39.5 -49 q-6 -7 -13.5 -15 q-7.5 -8 -15.5 -15 q-8 -7 -15.5 -11.5 q-7.5 -4.5 -12.5 -4.5 q-16 0 -31 11 q-15 11 -25.5 27.5 q-10.5 16.5 -14 36.5 q-3.5 20 3.5 38 q4 7 14.5 13 q10.5 6 27.5 17 q23 16 55 47.5 q32 31.5 65 67 q33 35.5 62.5 69.5 q29.5 34 49.5 55 q-12 15 -38.5 48.5 q-26.5 33.5 -56.5 71 q-30 37.5 -57 71 q-27 33.5 -39 47.5 q-14 15 -24.5 23.5 q-10.5 8.5 -18 15 q-7.5 6.5 -11.5 14 q-4 7.5 -4 20.5 q0 17 33 33 q21 6 39.5 4 q18.5 -2 34 -8.5 q15.5 -6.5 27 -16 q11.5 -9.5 16.5 -18.5 q12 -20 26.5 -41 q14.5 -21 33.5 -47 q19 -26 44.5 -60.5 q25.5 -34.5 60.5 -81.5 q35 48 62.5 85 q27.5 37 48 66.5 q20.5 29.5 35.5 52 q15 22.5 25 42.5 q6 12 11 20 q5 8 12 13 Z" /><glyph glyph-name="Y" unicode="y" d="M638 678 q13 0 28.5 -5.5 q15.5 -5.5 30 -14.5 q14.5 -9 25.5 -21 q11 -12 14 -25 q1 -7 -23.5 -39 q-24.5 -32 -66 -81 q-41.5 -49 -96 -110.5 q-54.5 -61.5 -112.5 -127.5 q0 -35 1 -64 q1 -29 2.5 -57.5 q1.5 -28.5 2.5 -59 q1 -30.5 1 -67.5 q0 -36 -12 -48.5 q-12 -12.5 -27 -12.5 q-48 0 -69 22 q-21 22 -21 49 q3 18 6 39.5 q3 21.5 4.5 50 q1.5 28.5 2.5 65 q1 36.5 1 83.5 q-50 75 -111 160 q-61 85 -129 164 q-32 36 -50 66 q0 14 29 28 q10 4 25.5 5 q15.5 1 32 -4 q16.5 -5 33 -16.5 q16.5 -11.5 27.5 -32.5 q9 -17 35.5 -53 q26.5 -36 58 -78 q31.5 -42 62 -82 q30.5 -40 47.5 -65 q19 21 40.5 46 q21.5 25 41 49.5 q19.5 24.5 35.5 45.5 q16 21 24 34 q28 38 44 65.5 q16 27.5 26.5 46 q10.5 18.5 18 29.5 q7.5 11 18.5 16 Z" /><glyph glyph-name="Z" unicode="z" d="M89 625 q0 13 3.5 19 q3.5 6 8.5 8.5 q5 2.5 11.5 3 q6.5 0.5 12.5 0.5 q36 -2 74 -3 q38 -1 86 0 q48 1 109 2.5 q61 1.5 142 3.5 q14 0 22 2.5 q8 2.5 13.5 5 q5.5 2.5 11.5 5 q6 2.5 17 2.5 q11 0 23 -10 q12 -10 22.5 -25.5 q10.5 -15.5 18.5 -35.5 q8 -20 11 -40 q-23 -25 -58 -63.5 q-35 -38.5 -75.5 -85 q-40.5 -46.5 -84 -96.5 q-43.5 -50 -84 -97 q-40.5 -47 -75 -87 q-34.5 -40 -56.5 -66 q58 0 107 0 q49 0 90 0.5 q41 0.5 75.5 1 q34.5 0.5 65.5 0.5 q12 0 20.5 0.5 q8.5 0.5 15 1 q6.5 0.5 13 1 q6.5 0.5 15.5 0.5 q15 0 26.5 -12 q11.5 -12 25.5 -33 q16 -35 -3.5 -55 q-19.5 -20 -68.5 -16 q-112 8 -224.5 12 q-112.5 4 -230.5 -5 q-19 -2 -28.5 -6.5 q-9.5 -4.5 -21.5 -5.5 q-11 4 -24 15 q-13 11 -24 25 q-11 14 -18.5 28.5 q-7.5 14.5 -7.5 26.5 q0 17 15 23 q15 6 28 3 q34 29 78.5 77 q44.5 48 92 102.5 q47.5 54.5 94 110.5 q46.5 56 84 101 q37.5 45 61.5 74 q24 29 28 30 q-18 0 -55.5 -1.5 q-37.5 -1.5 -85 -4.5 q-47.5 -3 -101 -6 q-53.5 -3 -102.5 -6 l-3 0 q-19 0 -31.5 3 q-12.5 3 -22.5 11 q-10 8 -18 22.5 q-8 14.5 -18 38.5 Z" /><glyph glyph-name="a" unicode="a" d="M486 443 q-2 8 -2.5 11.5 q-0.5 3.5 -1 5 q-0.5 1.5 -0.5 3 q0 1.5 -1 5.5 q0 3 0 6 q0 3 3.5 5 q3.5 2 12.5 2.5 q9 0.5 26 -1.5 q35 -8 55 -18 q20 -10 20 -25 q0 -11 -3.5 -22 q-3.5 -11 -3.5 -28 q0 -13 -0.5 -37.5 q-0.5 -24.5 -1.5 -54.5 q-1 -30 -2 -62.5 q-1 -32.5 -2 -61.5 q-1 -29 -1.5 -51.5 q-0.5 -22.5 -0.5 -32.5 q0 -16 6.5 -24 q6.5 -8 23.5 -10 q6 -5 7 -12 q1 -7 1 -18 q-3 -43 -24 -64 q-21 -21 -48 -21 q-7 0 -17 7 q-10 7 -20.5 16.5 q-10.5 9.5 -18.5 19 q-8 9.5 -10 14.5 q-25 -18 -70 -32.5 q-45 -14.5 -96 -14.5 q-42 0 -88.5 15 q-46.5 15 -85.5 46.5 q-39 31.5 -65 80 q-26 48.5 -26 114.5 q0 66 25 117.5 q25 51.5 65.5 87.5 q40.5 36 91.5 55 q51 19 102 19 q73 0 150 -40 ZM487 125 q0 63 0 105 q0 42 -0.5 69.5 q-0.5 27.5 -0.5 43.5 q0 16 0 28 q-17 -20 -36 -20 q-11 0 -23 6.5 q-12 6.5 -26 14 q-14 7.5 -31 14 q-17 6.5 -38 6.5 q-45 0 -78.5 -18 q-33.5 -18 -55.5 -45 q-22 -27 -32.5 -58.5 q-10.5 -31.5 -10.5 -58.5 q0 -42 16 -75 q16 -33 44.5 -55.5 q28.5 -22.5 67 -34 q38.5 -11.5 83.5 -11.5 q21 3 41.5 7 q20.5 4 37.5 13.5 q17 9.5 28 26 q11 16.5 14 42.5 Z" /><glyph glyph-name="b" unicode="b" d="M57 671 q3 16 23.5 17.5 q20.5 1.5 44.5 -6 q24 -7.5 43 -21.5 q19 -14 19 -29 q0 -15 -4.5 -29.5 q-4.5 -14.5 -4.5 -25.5 q-1 -14 -2 -29 q-1 -15 -1.5 -36 q-0.5 -21 -0.5 -51 q0 -30 0 -74 q18 23 41.5 39.5 q23.5 16.5 48.5 27 q25 10.5 49 15 q24 4.5 43 4.5 q51 0 97 -16 q46 -16 81.5 -48.5 q35.5 -32.5 56 -81.5 q20.5 -49 20.5 -115 q0 -70 -25 -119.5 q-25 -49.5 -63 -80.5 q-38 -31 -83 -45 q-45 -14 -85 -14 q-26 0 -51 6 q-25 6 -48 15 q-23 9 -42 19.5 q-19 10.5 -32 20.5 q-1 -31 -17.5 -52 q-16.5 -21 -44.5 -21 q-11 0 -22 7.5 q-11 7.5 -20 18 q-9 10.5 -14 22.5 q-5 12 -5 22 q13 49 13.5 155 q0.5 106 0.5 256 q0 63 -2 106.5 q-2 43.5 -4.5 72 q-2.5 28.5 -5 45 q-2.5 16.5 -4.5 25.5 ZM175 287 q0 -45 2 -92 q2 -47 4 -91 q54 -40 94.5 -52.5 q40.5 -12.5 69.5 -12.5 q35 0 64 12.5 q29 12.5 50 35.5 q21 23 32.5 55.5 q11.5 32.5 11.5 73.5 q0 81 -42 123.5 q-42 42.5 -107 42.5 q-32 0 -62 -15.5 q-30 -15.5 -48 -39.5 q-17 -23 -33 -33.5 q-16 -10.5 -28 -10.5 q-4 0 -6 1 l-2 3 Z" /><glyph glyph-name="c" unicode="c" d="M564 429 q6 2 7 -3.5 q1 -5.5 2 -10.5 q-3 -32 -9 -54 q-6 -22 -12.5 -36 q-6.5 -14 -12.5 -20.5 q-6 -6.5 -9 -6.5 q-5 0 -12 10 q-7 10 -11 16 q-15 20 -36 33.5 q-21 13.5 -44.5 22 q-23.5 8.5 -47 12.5 q-23.5 4 -43.5 4 q-29 0 -59.5 -9.5 q-30.5 -9.5 -55.5 -30.5 q-25 -21 -41.5 -54.5 q-16.5 -33.5 -16.5 -81.5 q0 -48 17 -82.5 q17 -34.5 44.5 -56 q27.5 -21.5 61.5 -31.5 q34 -10 69 -10 q81 0 133.5 30 q52.5 30 89.5 85 q8 13 13 13 q5 0 10 -16 q5 -16 5 -32 q0 -38 -18.5 -69.5 q-18.5 -31.5 -53 -54 q-34.5 -22.5 -85 -35.5 q-50.5 -13 -114.5 -13 q-57 0 -108.5 19 q-51.5 19 -90 53.5 q-38.5 34.5 -61 83 q-22.5 48.5 -22.5 106.5 q0 70 26 122 q26 52 67.5 86.5 q41.5 34.5 93.5 51 q52 16.5 105 16.5 q60 0 107.5 -13.5 q47.5 -13.5 89.5 -40.5 q9 -7 14.5 -6 q5.5 1 7.5 3 Z" /><glyph glyph-name="d" unicode="d" d="M467 669 q3 15 22.5 16 q19.5 1 42.5 -6.5 q23 -7.5 41.5 -20 q18.5 -12.5 18.5 -23.5 q-1 -8 -4.5 -28.5 q-3.5 -20.5 -4.5 -40.5 q0 -17 -1 -120 q-1 -103 -1 -291 q0 -26 1 -45.5 q1 -19.5 1.5 -36.5 q0.5 -17 1 -33.5 q0.5 -16.5 0.5 -36.5 q0 -32 -11 -45.5 q-11 -13.5 -25 -13.5 q-29 0 -48.5 23.5 q-19.5 23.5 -19.5 64.5 q-24 -31 -71 -56 q-47 -25 -110 -25 q-47 0 -92.5 16.5 q-45.5 16.5 -80.5 49 q-35 32.5 -56.5 79 q-21.5 46.5 -21.5 106.5 q0 69 24.5 119.5 q24.5 50.5 64 83 q39.5 32.5 88.5 48.5 q49 16 97 16 q49 0 90.5 -18 q41.5 -18 67.5 -54 q-1 41 0 78 q1 37 -1 85 l-2 62 q-2 19 -5.5 27.5 q-3.5 8.5 -5.5 19.5 ZM318 383 q-29 0 -57.5 -11 q-28.5 -11 -51 -33 q-22.5 -22 -37 -55 q-14.5 -33 -14.5 -77 q0 -50 16.5 -82 q16.5 -32 40.5 -50 q24 -18 51 -24.5 q27 -6.5 49 -6.5 q18 0 43.5 4.5 q25.5 4.5 50 18.5 q24.5 14 45 38.5 q20.5 24.5 27.5 65.5 l0 100 q-11 2 -17 14 q-6 12 -19 26 q-9 12 -20.5 24.5 q-11.5 12.5 -26.5 23 q-15 10.5 -35 17.5 q-20 7 -45 7 Z" /><glyph glyph-name="e" unicode="e" d="M358 486 q36 0 77 -10 q41 -10 76.5 -31 q35.5 -21 60.5 -53.5 q25 -32.5 30 -77.5 q3 -18 3 -35.5 q0 -17.5 -8.5 -32.5 q-8.5 -15 -28.5 -26 q-20 -11 -57 -15 q-18 0 -54.5 -7 q-36.5 -7 -78.5 -15.5 q-42 -8.5 -84 -15.5 q-42 -7 -70 -7 q-22 0 -28 6.5 q-6 6.5 -6 10.5 q0 14 14 30 q18 17 35 24.5 q17 7.5 35 10.5 q13 2 35 4.5 q22 2.5 47.5 6 q25.5 3.5 51.5 8.5 q26 5 47 12 q21 7 33.5 17 q12.5 10 10.5 24 q-4 24 -18 41.5 q-14 17.5 -34 28 q-20 10.5 -44.5 15.5 q-24.5 5 -49.5 5 q-35 0 -70.5 -11 q-35.5 -11 -64.5 -34 q-29 -23 -47.5 -60 q-18.5 -37 -18.5 -88 q0 -48 19 -81 q19 -33 48.5 -53.5 q29.5 -20.5 64 -29 q34.5 -8.5 65.5 -8.5 q78 0 132.5 24.5 q54.5 24.5 89.5 66.5 q8 9 12.5 12 q4.5 3 8.5 3 q4 0 4 -8 q0 -14 3 -27.5 q3 -13.5 3 -30.5 q0 -22 -14.5 -40.5 q-14.5 -18.5 -38.5 -33 q-24 -14.5 -54 -25.5 q-30 -11 -60 -18 q-30 -7 -58 -10.5 q-28 -3.5 -47 -3.5 q-51 0 -102 15.5 q-51 15.5 -91.5 46.5 q-40.5 31 -65.5 78 q-25 47 -25 111 q0 59 20.5 111.5 q20.5 52.5 60.5 91.5 q40 39 98 61.5 q58 22.5 133 22.5 Z" /><glyph glyph-name="f" unicode="f" d="M488 669 q10 3 13.5 -1.5 q3.5 -4.5 4.5 -9.5 q0 -66 -11.5 -95 q-11.5 -29 -19.5 -29 q-2 0 -10.5 8 q-8.5 8 -21 17 q-12.5 9 -29 17 q-16.5 8 -33.5 8 q-28 0 -46 -8.5 q-18 -8.5 -28 -28 q-10 -19.5 -14 -50 q-4 -30.5 -4 -73.5 q37 0 73.5 2 q36.5 2 62.5 4 q15 0 31 1 q16 1 33 1 q16 0 29 -13 q13 -13 13 -24 q0 -13 -2.5 -25.5 q-2.5 -12.5 -9 -22 q-6.5 -9.5 -16.5 -14.5 q-10 -5 -25 -3 q-38 6 -79.5 10 q-41.5 4 -109.5 5 q0 -119 3.5 -209.5 q3.5 -90.5 2.5 -135.5 q0 -20 -14 -39.5 q-14 -19.5 -39 -19.5 q-9 0 -20 4.5 q-11 4.5 -21.5 13.5 q-10.5 9 -18.5 21.5 q-8 12.5 -10 28.5 q2 16 4.5 43.5 q2.5 27.5 4.5 63 q2 35.5 4 77 q2 41.5 3 86.5 q0 13 0 24.5 q0 11.5 -1 38.5 q-32 -2 -54.5 -7.5 q-22.5 -5.5 -48.5 -5.5 q-15 0 -22 5.5 q-7 5.5 -10.5 14 q-3.5 8.5 -5 20 q-1.5 11.5 -4.5 23.5 q-2 14 4 21 q6 7 17 9.5 q11 2.5 27 2 q16 -0.5 33 -0.5 l65 0 q0 19 -0.5 34.5 q-0.5 15.5 -0.5 39.5 q0 37 10 69 q10 32 32.5 55.5 q22.5 23.5 58.5 37 q36 13.5 87 13.5 q23 0 49 -5 q26 -5 49 -5 q6 0 9.5 2 q3.5 2 5.5 4 Z" /><glyph glyph-name="g" unicode="g" d="M572 186 q0 -37 0 -60 q0 -23 -0.5 -40.5 q-0.5 -17.5 -0.5 -34.5 q0 -17 0 -42 q0 -38 -7 -73.5 q-7 -35.5 -33.5 -62.5 q-26.5 -27 -78.5 -43 q-52 -16 -142 -16 q-37 0 -73.5 2.5 q-36.5 2.5 -67 13 q-30.5 10.5 -53.5 31.5 q-23 21 -32 59 q-1 5 3 8.5 q4 3.5 12 3.5 q4 0 23.5 -6 q19.5 -6 54.5 -13 q49 -8 82 -9.5 q33 -1.5 63 -1.5 q56 0 86.5 10 q30.5 10 45 27.5 q14.5 17.5 17 40 q2.5 22.5 2.5 47.5 l0 39 q-27 -19 -72 -35 q-45 -16 -95 -16 q-44 0 -88.5 11.5 q-44.5 11.5 -80.5 38 q-36 26.5 -59 69.5 q-23 43 -23 105 q0 60 22 105.5 q22 45.5 58.5 76.5 q36.5 31 84.5 46.5 q48 15.5 101 15.5 q26 0 51.5 -3.5 q25.5 -3.5 47 -9 q21.5 -5.5 39 -11.5 q17.5 -6 27.5 -10 q2 7 7.5 15 q5.5 8 7.5 9 q5 3 20 0 q15 -3 31.5 -10 q16.5 -7 30.5 -17.5 q14 -10.5 17 -22.5 q2 -6 -1 -12.5 q-3 -6.5 -7 -14 q-4 -7.5 -8 -17 q-4 -9.5 -5 -21.5 q-2 -30 -3.5 -52.5 q-1.5 -22.5 -2.5 -41.5 q-1 -19 -1 -37.5 q0 -18.5 0 -40.5 ZM475 371 q-12 -9 -25.5 -6.5 q-13.5 2.5 -31 9.5 q-17.5 7 -40.5 14 q-23 7 -56 7 q-44 0 -76 -15 q-32 -15 -52.5 -37 q-20.5 -22 -30.5 -47.5 q-10 -25.5 -10 -46.5 q0 -35 14 -62.5 q14 -27.5 39 -47 q25 -19.5 60 -30 q35 -10.5 78 -10.5 q14 0 31 2.5 q17 2.5 34.5 6.5 q17.5 4 33.5 9 q16 5 28 11 q0 19 0.5 46 q0.5 27 0.5 59.5 q0 32.5 0.5 67.5 q0.5 35 2.5 70 Z" /><glyph glyph-name="h" unicode="h" d="M62 671 q3 13 22.5 15 q19.5 2 42.5 -4.5 q23 -6.5 41.5 -19 q18.5 -12.5 18.5 -27.5 q0 -9 -1.5 -18 q-1.5 -9 -3.5 -23.5 q-2 -14.5 -4 -38 q-2 -23.5 -3 -60.5 q-1 -19 -1 -40 q0 -21 0 -41 q0 -20 0 -38 q0 -18 0 -31 q14 24 34 46 q20 22 45.5 38.5 q25.5 16.5 55.5 26.5 q30 10 65 10 q54 0 93 -16 q39 -16 64.5 -44 q25.5 -28 37.5 -66 q12 -38 12 -81 l7 -237 q0 -7 -2 -18.5 q-2 -11.5 -6.5 -23 q-4.5 -11.5 -11.5 -19.5 q-7 -8 -16 -8 q-35 0 -59.5 14.5 q-24.5 14.5 -23.5 39.5 q2 12 4.5 38 q2.5 26 4.5 56.5 q2 30.5 3.5 61.5 q1.5 31 1.5 53 q0 78 -27 116 q-27 38 -89 38 q-38 0 -66.5 -12.5 q-28.5 -12.5 -51.5 -33 q-23 -20.5 -41 -47 q-18 -26.5 -33 -55.5 q0 -17 1 -44.5 q1 -27.5 2.5 -59 q1.5 -31.5 2.5 -62.5 q1 -31 1 -53 q0 -33 -12.5 -51 q-12.5 -18 -47.5 -11 q-27 4 -38.5 17.5 q-11.5 13.5 -14.5 31.5 q-3 18 -0.5 39.5 q2.5 21.5 3.5 42.5 q3 56 4 106 q1 50 1 97 q0 47 -1 94 q-1 47 -1 98 q0 36 0 70 q0 34 -2 62 q-2 21 -3.5 33 q-1.5 12 -3 19 q-1.5 7 -3 11 q-1.5 4 -1.5 9 Z" /><glyph glyph-name="i" unicode="i" d="M79 458 q2 11 21.5 12.5 q19.5 1.5 42 -4.5 q22.5 -6 40.5 -16.5 q18 -10.5 18 -23.5 q0 -7 -3.5 -20 q-3.5 -13 -4.5 -30 q-2 -15 -2.5 -34.5 q-0.5 -19.5 -1 -41 q-0.5 -21.5 -0.5 -43 q0 -21.5 0 -39.5 q0 -21 1 -40.5 q1 -19.5 2.5 -41 q1.5 -21.5 2.5 -47.5 q1 -26 1 -60 q0 -14 -1.5 -28.5 q-1.5 -14.5 -5 -26 q-3.5 -11.5 -9.5 -19 q-6 -7.5 -14 -7.5 q-8 0 -24 4 q-16 4 -31 11 q-15 7 -26 17.5 q-11 10.5 -9 22.5 q2 19 4 47.5 q2 28.5 3.5 61 q1.5 32.5 3 66.5 q1.5 34 2.5 63.5 q1 29.5 1.5 52.5 q0.5 23 0.5 34 q0 43 -4.5 75 q-4.5 32 -7.5 55 ZM112 671 q15 4 32.5 2.5 q17.5 -1.5 33 -7.5 q15.5 -6 25.5 -14 q10 -8 10 -17 q0 -39 -18.5 -65 q-18.5 -26 -49.5 -26 q-31 0 -50.5 12.5 q-19.5 12.5 -23.5 29.5 q0 21 4.5 35.5 q4.5 14.5 11 25 q6.5 10.5 13.5 16 q7 5.5 12 8.5 Z" /><glyph glyph-name="j" unicode="j" d="M209 12 q0 56 0.5 126 q0.5 70 0.5 146 q0 43 0 74.5 q0 31.5 -2 57.5 q-1 13 -5 21 q-4 8 -6 22 q2 12 22 13.5 q20 1.5 43 -4 q23 -5.5 42 -16 q19 -10.5 19 -23.5 q0 -7 -4 -17.5 q-4 -10.5 -5 -16.5 q-3 -36 -4 -72.5 q-1 -36.5 -0.5 -77.5 q0.5 -41 1.5 -87.5 q1 -46.5 1 -101.5 q0 -23 -1.5 -44.5 q-1.5 -21.5 -3.5 -35.5 q-6 -36 -16.5 -66.5 q-10.5 -30.5 -29 -52.5 q-18.5 -22 -47 -34.5 q-28.5 -12.5 -71.5 -13.5 q-17 -1 -38 7 q-21 8 -40.5 22 q-19.5 14 -36 34 q-16.5 20 -23.5 44 q-2 5 3 9 q5 4 11 4 q8 0 28.5 -6.5 q20.5 -6.5 39.5 -6.5 q36 0 59 6.5 q23 6.5 37 19 q14 12.5 20 30.5 q6 18 6 40 ZM230 673 q15 4 33 2.5 q18 -1.5 33 -7.5 q15 -6 25.5 -14 q10.5 -8 10.5 -17 q0 -39 -18.5 -65 q-18.5 -26 -49.5 -26 q-31 0 -50.5 12.5 q-19.5 12.5 -24.5 29.5 q0 21 4.5 35.5 q4.5 14.5 11.5 25 q7 10.5 13.5 16 q6.5 5.5 11.5 8.5 Z" /><glyph glyph-name="k" unicode="k" d="M66 669 q6 10 17.5 13 q11.5 3 25 0.5 q13.5 -2.5 28 -8.5 q14.5 -6 26.5 -13 q12 -7 19.5 -13.5 q7.5 -6.5 7.5 -10.5 q0 -17 -4 -35 q-4 -18 -4 -25 q-2 -15 -2.5 -47.5 q-0.5 -32.5 -1 -73 q-0.5 -40.5 -0.5 -85.5 q0 -45 0 -85 q43 19 79 36.5 q36 17.5 66 36 q30 18.5 56 38.5 q26 20 51 44 q13 13 25 27.5 q12 14.5 24 14.5 q10 -3 22.5 -12.5 q12.5 -9.5 23.5 -21.5 q11 -12 18 -26 q7 -14 6 -26 q0 -3 -2 -6 q-2 -3 -6.5 -6.5 q-4.5 -3.5 -13.5 -9.5 q-9 -6 -24 -15 q-18 -11 -44 -24 q-26 -13 -54.5 -26 q-28.5 -13 -58.5 -26 q-30 -13 -57 -25 q41 -25 79 -52 q38 -27 73 -53 q35 -26 67.5 -48 q32.5 -22 63.5 -36 q11 -5 12 -9 q1 -4 3 -19 q-4 -49 -23.5 -75 q-19.5 -26 -42.5 -26 q-13 0 -26 16 q-24 27 -59 64.5 q-35 37.5 -74 75.5 q-39 38 -77.5 71.5 q-38.5 33.5 -69.5 53.5 q-11 -3 -20 -7 q-9 -4 -16 -7 q0 -24 1 -53 q1 -29 1.5 -57.5 q0.5 -28.5 1 -53.5 q0.5 -25 0.5 -41 q0 -30 -10.5 -42 q-10.5 -12 -15.5 -12 q-15 0 -31.5 3 q-16.5 3 -29.5 11 q-13 8 -21 20.5 q-8 12.5 -7 32.5 q3 22 5 64 q2 42 3.5 97 q1.5 55 2 120 q0.5 65 0.5 135 q0 43 -0.5 86.5 q-0.5 43.5 -0.5 95.5 q-1 11 -2.5 18.5 q-1.5 7.5 -3 13.5 q-1.5 6 -3.5 11 q-2 5 -3 12 Z" /><glyph glyph-name="l" unicode="l" d="M73 668 q0 11 9 14 q9 3 23 0.5 q14 -2.5 30.5 -9 q16.5 -6.5 31 -15 q14.5 -8.5 24.5 -16.5 q10 -8 11 -13 q1 -9 -3.5 -32.5 q-4.5 -23.5 -5.5 -48.5 q-1 -12 -2 -49 q-1 -37 -2.5 -83 q-1.5 -46 -2.5 -93.5 q-1 -47.5 -2 -78.5 q0 -39 -1 -72 q-1 -33 2 -59.5 q3 -26.5 11.5 -45.5 q8.5 -19 26.5 -30 q11 -6 7 -28 q-5 -32 -21 -52.5 q-16 -20.5 -33 -24.5 q-4 -1 -10 1 q-6 2 -12.5 5.5 q-6.5 3.5 -13 7 q-6.5 3.5 -10.5 6.5 q-21 14 -35.5 36.5 q-14.5 22.5 -14.5 58.5 q1 6 2 30.5 q1 24.5 2 71 q1 46.5 1.5 116 q0.5 69.5 0.5 166.5 q0 51 0 96 q0 45 -2 74 q-2 20 -5.5 36 q-3.5 16 -5.5 31 Z" /><glyph glyph-name="m" unicode="m" d="M72 453 q0 4 -1.5 7.5 q-1.5 3.5 -1.5 8.5 q1 10 19 10 q18 0 39 -5.5 q21 -5.5 38.5 -15 q17.5 -9.5 17.5 -18.5 q0 -9 -1.5 -15.5 q-1.5 -6.5 -3 -13.5 q-1.5 -7 -3 -16 q-1.5 -9 -2.5 -23 q10 13 26 30 q16 17 37 32 q21 15 46.5 25.5 q25.5 10.5 54.5 10.5 q54 0 89 -26.5 q35 -26.5 53 -75.5 q25 43 71.5 72.5 q46.5 29.5 106.5 29.5 q77 0 119.5 -40.5 q42.5 -40.5 45.5 -103.5 q0 -11 0.5 -45 q0.5 -34 2 -78.5 q1.5 -44.5 3 -93.5 q1.5 -49 3.5 -90 q0 -29 -13 -48.5 q-13 -19.5 -43 -19.5 q-13 0 -23 7 q-10 7 -17.5 17 q-7.5 10 -11.5 20.5 q-4 10.5 -5 17.5 q1 12 3 36 q2 24 4.5 55 q2.5 31 4 67.5 q1.5 36.5 1.5 75.5 q0 22 -3 44 q-3 22 -11 40 q-8 18 -21 29 q-13 11 -32 13 q-24 2 -53.5 -6.5 q-29.5 -8.5 -55 -27.5 q-25.5 -19 -43 -48.5 q-17.5 -29.5 -17.5 -70.5 q0 -4 0 -10.5 q0 -6.5 1 -26 q1 -19.5 2.5 -58 q1.5 -38.5 3.5 -105.5 q0 -29 -10 -47 q-10 -18 -25 -18 q-9 0 -22 4 q-13 4 -25 11 q-12 7 -20.5 17 q-8.5 10 -8.5 22 q0 4 0 8 q0 4 1 12 q2 19 4 47.5 q2 28.5 4 60.5 q2 32 3 64.5 q1 32.5 1 59.5 q0 19 -5 39 q-5 20 -15 36.5 q-10 16.5 -24 26.5 q-14 10 -33 10 q-23 0 -43.5 -7.5 q-20.5 -7.5 -37.5 -19 q-17 -11.5 -30.5 -26 q-13.5 -14.5 -22.5 -27.5 q-12 -23 -15.5 -43 q-3.5 -20 -3.5 -43 q0 -14 1 -39 q1 -25 1.5 -53.5 q0.5 -28.5 1.5 -57.5 q1 -29 1 -51 q0 -18 -3.5 -28.5 q-3.5 -10.5 -8.5 -16 q-5 -5.5 -9.5 -7.5 q-4.5 -2 -6.5 -2 q-8 0 -23 4 q-15 4 -29.5 11 q-14.5 7 -25.5 17 q-11 10 -11 23 q0 3 0 6.5 q0 3.5 1 11.5 q2 16 4.5 47.5 q2.5 31.5 4.5 73.5 q2 42 3.5 94 q1.5 52 1.5 110 q0 29 -1 56 q-1 27 -4 47 Z" /><glyph glyph-name="n" unicode="n" d="M71 470 q11 15 31 14.5 q20 -0.5 39.5 -8.5 q19.5 -8 34 -20 q14.5 -12 14.5 -19 q-1 -8 -4 -14.5 q-3 -6.5 -4 -16.5 l-3 -49 q15 22 35.5 42 q20.5 20 45.5 36 q25 16 55 25.5 q30 9.5 65 9.5 q56 0 96.5 -15.5 q40.5 -15.5 67 -44 q26.5 -28.5 39 -68 q12.5 -39.5 12.5 -86.5 q0 -60 1.5 -120 q1.5 -60 3.5 -125 q0 -10 -3 -21 q-3 -11 -9.5 -20.5 q-6.5 -9.5 -15.5 -16 q-9 -6.5 -21 -6.5 q-22 0 -35.5 6 q-13.5 6 -21 15 q-7.5 9 -10 19.5 q-2.5 10.5 -2.5 19.5 q6 51 11.5 111 q5.5 60 5.5 112 q0 70 -30 109.5 q-30 39.5 -98 35.5 q-32 -2 -60.5 -14 q-28.5 -12 -52.5 -30 q-24 -18 -44 -40 q-20 -22 -34 -44 q0 -3 0 -10.5 q0 -7.5 1 -31 q1 -23.5 1.5 -69 q0.5 -45.5 2.5 -124.5 q0 -13 -4.5 -25 q-4.5 -12 -13 -21.5 q-8.5 -9.5 -19 -15 q-10.5 -5.5 -22.5 -4.5 q-15 1 -27 10.5 q-12 9.5 -20 20.5 q-8 11 -12.5 22 q-4.5 11 -3.5 15 q4 21 7 52.5 q3 31.5 5.5 75 q2.5 43.5 3.5 101 q1 57.5 1 131.5 q0 27 -3.5 51 q-3.5 24 -5.5 45 Z" /><glyph glyph-name="o" unicode="o" d="M503 451 q5 -3 5 -9 q-2 -7 -6.5 -19.5 q-4.5 -12.5 -9.5 -32.5 q10 0 21 -4 q11 -4 20.5 -9 q9.5 -5 16 -10 q6.5 -5 8.5 -7 q36 -37 51 -83 q15 -46 15 -84 q0 -59 -23 -104.5 q-23 -45.5 -62 -76.5 q-39 -31 -91.5 -47.5 q-52.5 -16.5 -110.5 -16.5 q-59 0 -110.5 17.5 q-51.5 17.5 -90 51.5 q-38.5 34 -61 82.5 q-22.5 48.5 -22.5 110.5 q0 67 24.5 118 q24.5 51 63.5 85 q39 34 88 51.5 q49 17.5 98 17.5 q29 0 64 -5.5 q35 -5.5 59 -15.5 q18 -8 26.5 -9.5 q8.5 -1.5 13 -1.5 q4.5 0 6.5 1 q2 1 7 0 ZM469 315 q-2 3 -7 7 q-5 4 -9 9.5 q-4 5.5 -5 11 q-1 5.5 5 11.5 q-21 17 -52 25.5 q-31 8.5 -64 8.5 q-48 0 -82 -16 q-34 -16 -56.5 -41.5 q-22.5 -25.5 -33 -56.5 q-10.5 -31 -10.5 -62 q0 -41 14.5 -72.5 q14.5 -31.5 39 -54 q24.5 -22.5 57 -34 q32.5 -11.5 68.5 -11.5 q44 0 79 13.5 q35 13.5 59 36.5 q24 23 36.5 53.5 q12.5 30.5 12.5 63.5 q0 35 -16.5 62.5 q-16.5 27.5 -35.5 45.5 Z" /><glyph glyph-name="p" unicode="p" d="M67 411 q0 6 5.5 11.5 q5.5 5.5 15 6.5 q9.5 1 23.5 -3.5 q14 -4.5 32 -16.5 q30 11 54 23.5 q24 12.5 47 23.5 q23 11 47 18 q24 7 54 7 q52 0 103 -16.5 q51 -16.5 91 -49 q40 -32.5 65 -82 q25 -49.5 25 -115.5 q0 -63 -24.5 -110.5 q-24.5 -47.5 -63.5 -79.5 q-39 -32 -88.5 -48.5 q-49.5 -16.5 -98.5 -16.5 q-27 0 -53.5 5 q-26.5 5 -50 12.5 q-23.5 7.5 -43.5 17.5 q-20 10 -33 20 l5 -132 q2 -17 -1.5 -31 q-3.5 -14 -11 -24 q-7.5 -10 -17 -15.5 q-9.5 -5.5 -19.5 -5.5 q-13 0 -25.5 7 q-12.5 7 -22.5 17.5 q-10 10.5 -16 22.5 q-6 12 -6 21 q12 120 16.5 241 q4.5 121 -0.5 242 q-2 16 -3.5 25 q-1.5 9 -2.5 13.5 q-1 4.5 -2 6.5 q-1 2 -1 5 ZM172 202 q0 -18 0 -42.5 q0 -24.5 1 -50.5 q6 -7 19.5 -17.5 q13.5 -10.5 33 -20 q19.5 -9.5 44 -16 q24.5 -6.5 53.5 -6.5 q48 0 85 16.5 q37 16.5 62.5 43 q25.5 26.5 39 58.5 q13.5 32 13.5 63 q0 32 -10.5 61 q-10.5 29 -31.5 51.5 q-21 22.5 -52.5 35.5 q-31.5 13 -73.5 13 q-21 0 -42 -6.5 q-21 -6.5 -40.5 -16.5 q-19.5 -10 -36.5 -21 q-17 -11 -31 -21 q-6 -4 -14.5 -7.5 q-8.5 -3.5 -16.5 -4.5 q1 -5 1.5 -8 q0.5 -3 0.5 -10 q-1 -2 -2.5 -27 q-1.5 -25 -1.5 -67 Z" /><glyph glyph-name="q" unicode="q" d="M498 443 q-2 13 3 18.5 q5 5.5 12 6.5 q15 1 32.5 -4.5 q17.5 -5.5 33 -13.5 q15.5 -8 25.5 -17 q10 -9 10 -13 q0 -10 -10 -23.5 q-10 -13.5 -13 -34.5 q-1 -8 -2 -27.5 q-1 -19.5 -1.5 -47 q-0.5 -27.5 -1 -60 q-0.5 -32.5 -0.5 -66.5 q0 -27 1 -66 q1 -39 2.5 -79.5 q1.5 -40.5 2.5 -77 q1 -36.5 1 -58.5 q0 -7 -1.5 -17.5 q-1.5 -10.5 -5 -20 q-3.5 -9.5 -10.5 -16.5 q-7 -7 -18 -7 q-8 0 -22.5 3.5 q-14.5 3.5 -28.5 9.5 q-14 6 -24.5 15 q-10.5 9 -10.5 21 q0 18 1 31.5 q1 13.5 2 28 q1 14.5 2.5 33 q1.5 18.5 3.5 45.5 q-27 -17 -72 -30 q-45 -13 -95 -13 q-43 0 -89 14.5 q-46 14.5 -84.5 44.5 q-38.5 30 -63 76.5 q-24.5 46.5 -24.5 110.5 q0 67 25.5 117.5 q25.5 50.5 66.5 85 q41 34.5 92.5 52 q51.5 17.5 104.5 17.5 q25 0 49.5 -4 q24.5 -4 45 -10 q20.5 -6 36.5 -12.5 q16 -6.5 25 -11.5 ZM350 48 q35 0 71.5 11 q36.5 11 62.5 38 q1 28 1.5 49 q0.5 21 1 40 q0.5 19 0.5 37.5 q0 18.5 0 42.5 q0 29 -0.5 57 q-0.5 28 -1.5 51 q-2 -4 -8.5 -7 q-6.5 -3 -13.5 -3 q-4 0 -12 3 q-8 3 -10 4 q-26 11 -60 15 q-34 4 -57 4 q-43 0 -75 -17.5 q-32 -17.5 -53.5 -43 q-21.5 -25.5 -32 -56 q-10.5 -30.5 -10.5 -55.5 q0 -38 14.5 -69 q14.5 -31 40.5 -53.5 q26 -22.5 62 -35 q36 -12.5 80 -12.5 Z" /><glyph glyph-name="r" unicode="r" d="M69 468 q7 14 27 14 q20 0 41 -7.5 q21 -7.5 37.5 -19 q16.5 -11.5 16.5 -20.5 q-1 -7 -4 -17.5 q-3 -10.5 -4 -18.5 l-3 -48 q19 22 44 42.5 q25 20.5 54 36.5 q29 16 60.5 26 q31.5 10 63.5 10 q29 0 55 -4 q26 -4 46 -12.5 q20 -8.5 33 -20.5 q13 -12 16 -28 q4 -18 -6.5 -34 q-10.5 -16 -41.5 -16 q-15 0 -30.5 2.5 q-15.5 2.5 -31 5 q-15.5 2.5 -29.5 4.5 q-14 2 -26 1 q-50 -3 -86 -20 q-36 -17 -60.5 -37 q-24.5 -20 -39.5 -38.5 q-15 -18.5 -22 -25.5 q0 -27 1 -49.5 q1 -22.5 2.5 -48 q1.5 -25.5 2.5 -58 q1 -32.5 1 -78.5 q0 -7 -2 -17.5 q-2 -10.5 -5.5 -20 q-3.5 -9.5 -9.5 -16.5 q-6 -7 -15 -7 q-11 0 -26 5 q-15 5 -29 13.5 q-14 8.5 -23.5 20 q-9.5 11.5 -9.5 25.5 q0 4 0 8.5 q0 4.5 1 11.5 q5 39 7.5 89 q2.5 50 4 99.5 q1.5 49.5 2 92.5 q0.5 43 0.5 69 q-2 27 -5.5 48 q-3.5 21 -6.5 38 Z" /><glyph glyph-name="s" unicode="s" d="M535 428 q3 -5 3.5 -11 q0.5 -6 -0.5 -11 q-3 -20 -10 -37 q-7 -17 -15 -29 q-8 -12 -15.5 -19 q-7.5 -7 -11.5 -7 q-6 0 -12.5 7 q-6.5 7 -11.5 12 q-14 17 -35.5 29.5 q-21.5 12.5 -45 20 q-23.5 7.5 -45.5 11 q-22 3.5 -37 3.5 q-71 0 -101 -17.5 q-30 -17.5 -30 -46.5 q0 -30 29 -43 q29 -13 73 -18.5 q44 -5.5 95 -10 q51 -4.5 95 -18.5 q44 -14 73 -42.5 q29 -28.5 29 -82.5 q0 -36 -12 -67 q-12 -31 -40.5 -53.5 q-28.5 -22.5 -75.5 -35.5 q-47 -13 -117 -13 q-35 0 -70 5.5 q-35 5.5 -66.5 14 q-31.5 8.5 -56.5 18.5 q-25 10 -38 19 q-25 18 -34 49.5 q-9 31.5 -9 62.5 q0 4 1 8 q1 4 7 2 q2 -1 13.5 -9.5 q11.5 -8.5 19.5 -15.5 q26 -20 60 -33.5 q34 -13.5 67.5 -21 q33.5 -7.5 62.5 -10.5 q29 -3 45 -3 q45 0 71.5 10 q26.5 10 41 24 q14.5 14 19 28.5 q4.5 14.5 4.5 22.5 q0 15 -7.5 24 q-7.5 9 -25 15 q-17.5 6 -44.5 9.5 q-27 3.5 -66 7.5 q-51 8 -95.5 16.5 q-44.5 8.5 -77.5 25 q-33 16.5 -52 43.5 q-19 27 -19 72 q1 36 19.5 64.5 q18.5 28.5 50 47.5 q31.5 19 74.5 29 q43 10 94 10 q31 0 55 -5.5 q24 -5.5 46 -13.5 q22 -8 44 -18 q22 -10 50 -19 q6 -2 10.5 -1 q4.5 1 8.5 2.5 q4 1.5 7 1.5 q3 0 8 -3 Z" /><glyph glyph-name="t" unicode="t" d="M197 655 q3 14 22.5 15 q19.5 1 41 -5 q21.5 -6 39.5 -16.5 q18 -10.5 18 -18.5 q0 -20 -4 -37.5 q-4 -17.5 -5 -46.5 l-3 -87 q19 0 38 -0.5 q19 -0.5 38.5 -0.5 q19.5 0 41.5 0 q22 0 48 1 q16 0 26 -14.5 q10 -14.5 13 -32 q3 -17.5 -2 -32 q-5 -14.5 -20 -14.5 q-34 5 -79 8 q-45 3 -105 5 q0 -21 -1 -51 q-1 -30 -1.5 -61.5 q-0.5 -31.5 -1 -61.5 q-0.5 -30 -0.5 -52 q0 -45 18.5 -70 q18.5 -25 67.5 -25 q20 0 39 4 q19 4 35.5 8.5 q16.5 4.5 30.5 8.5 q14 4 24 4 q2 0 6 -1.5 q4 -1.5 4 -6.5 q0 -9 -8.5 -29.5 q-8.5 -20.5 -25.5 -41.5 q-17 -21 -41.5 -36.5 q-24.5 -15.5 -55.5 -15.5 q-51 0 -85 10 q-34 10 -55 26.5 q-21 16.5 -31.5 37.5 q-10.5 21 -14 42.5 q-3.5 21.5 -3.5 41.5 q0 20 0 35 q0 58 2.5 116 q2.5 58 0.5 118 q-23 -2 -52.5 -5 q-29.5 -3 -60.5 -8 q-16 -4 -25 0 q-9 4 -14.5 13 q-5.5 9 -8.5 22 q-3 13 -6 26 q0 10 4.5 16.5 q4.5 6.5 12 10 q7.5 3.5 16 4.5 q8.5 1 16.5 1 q20 0 49 0 q29 0 68 -1 q0 23 -0.5 49.5 q-0.5 26.5 -1.5 53 q-1 26.5 -3 51 q-2 24.5 -6 43.5 Z" /><glyph glyph-name="u" unicode="u" d="M467 468 q4 13 24 11.5 q20 -1.5 42.5 -10 q22.5 -8.5 40.5 -19 q18 -10.5 18 -14.5 q0 -5 -1.5 -11 q-1.5 -6 -3 -17.5 q-1.5 -11.5 -3.5 -31 q-2 -19.5 -3 -51.5 l0 -122 l3 -115 q0 -10 1 -26.5 q1 -16.5 1 -26.5 q0 -47 -9 -65 q-9 -18 -22 -18 q-11 0 -25.5 3.5 q-14.5 3.5 -28 10 q-13.5 6.5 -22.5 15 q-9 8.5 -10 19.5 q2 18 2.5 36.5 q0.5 18.5 2.5 45.5 q-8 -14 -22.5 -35 q-14.5 -21 -38.5 -40 q-24 -19 -58 -32.5 q-34 -13.5 -82 -13.5 q-53 0 -90.5 16 q-37.5 16 -61.5 43 q-24 27 -35.5 63.5 q-11.5 36.5 -11.5 78.5 q0 34 1.5 71.5 q1.5 37.5 1 76 q-0.5 38.5 -4 77.5 q-3.5 39 -12.5 76 q0 14 19 18 q13 -2 31 -6 q18 -4 34 -10.5 q16 -6.5 26.5 -16.5 q10.5 -10 9.5 -22 q-8 -51 -9 -104.5 q-1 -53.5 -1 -109.5 q0 -42 5 -72 q5 -30 18 -48.5 q13 -18.5 36.5 -27 q23.5 -8.5 60.5 -8.5 q33 0 63.5 15 q30.5 15 55 33.5 q24.5 18.5 41.5 35.5 q17 17 23 20 q6 69 6.5 128.5 q0.5 59.5 0.5 100.5 q-1 19 -2.5 30.5 q-1.5 11.5 -3 19.5 q-1.5 8 -3.5 14.5 q-2 6.5 -4 14.5 Z" /><glyph glyph-name="v" unicode="v" d="M539 478 q52 -16 66.5 -35.5 q14.5 -19.5 3.5 -39.5 q-1 -1 -1.5 -3 q-0.5 -2 -4 -9 q-3.5 -7 -11 -21.5 q-7.5 -14.5 -22 -41.5 q-14.5 -27 -36.5 -69 q-22 -42 -54 -103 q-17 -31 -32.5 -64.5 q-15.5 -33.5 -29.5 -62 q-14 -28.5 -26 -48 q-12 -19.5 -21 -23.5 q-12 -5 -29 -5.5 q-17 -0.5 -33.5 2.5 q-16.5 3 -30 10 q-13.5 7 -18.5 18 q-2 5 -2 12 q0 7 -3 15 q-38 86 -75.5 162 q-37.5 76 -68 134.5 q-30.5 58.5 -50.5 96 q-20 37.5 -23 46.5 q0 8 10.5 17 q10.5 9 30.5 9 q29 0 47.5 -4 q18.5 -4 30 -11 q11.5 -7 17.5 -16 q6 -9 10 -19 q32 -88 67.5 -173.5 q35.5 -85.5 79.5 -171.5 q30 49 57 102.5 q27 53.5 49 104 q22 50.5 37 95 q15 44.5 21 75.5 q-6 18 6.5 20.5 q12.5 2.5 37.5 0.5 Z" /><glyph glyph-name="w" unicode="w" d="M771 476 q38 -14 52.5 -34.5 q14.5 -20.5 14.5 -37.5 q0 -4 -3 -10.5 q-3 -6.5 -7.5 -14 q-4.5 -7.5 -9 -15 q-4.5 -7.5 -6.5 -12.5 q-36 -77 -71 -163.5 q-35 -86.5 -71 -178.5 q-8 -18 -12 -29 q-4 -11 -6.5 -17.5 q-2.5 -6.5 -5.5 -8.5 q-3 -2 -7 -2 q-6 0 -21.5 2.5 q-15.5 2.5 -33 8.5 q-17.5 6 -33.5 15.5 q-16 9.5 -22 22.5 q-1 3 -1 16 q0 8 -1.5 16.5 q-1.5 8.5 -3.5 13.5 q-8 27 -19 62.5 q-11 35.5 -22.5 70.5 q-11.5 35 -22 65 q-10.5 30 -17.5 47 q-12 -27 -28.5 -66.5 q-16.5 -39.5 -33 -79 q-16.5 -39.5 -30 -74 q-13.5 -34.5 -18.5 -51.5 q-10 -32 -18 -47.5 q-8 -15.5 -17.5 -21 q-9.5 -5.5 -21.5 -4.5 q-12 1 -30 3 q-11 1 -20.5 10.5 q-9.5 9.5 -18.5 44.5 q-5 17 -16 52 q-11 35 -26.5 78.5 q-15.5 43.5 -32.5 91.5 q-17 48 -34.5 92 q-17.5 44 -32.5 79 q-15 35 -26 53 q1 10 11.5 15.5 q10.5 5.5 25.5 6.5 q15 1 33 -2 q18 -3 33 -8.5 q15 -5.5 26 -13.5 q11 -8 13 -17 q3 -16 13.5 -57 q10.5 -41 24.5 -92 q14 -51 29 -104.5 q15 -53.5 27 -93.5 q8 18 21.5 50 q13.5 32 28 67.5 q14.5 35.5 28 69 q13.5 33.5 20.5 54.5 q6 18 9 29.5 q3 11.5 4 18 q1 6.5 1 9.5 q0 3 0 5 q0 10 -3 19 q-3 9 -4 15.5 q-1 6.5 3 11 q4 4.5 18 4.5 q20 2 38 0 q18 -2 32 -6.5 q14 -4.5 22.5 -10 q8.5 -5.5 9.5 -10.5 q0 -1 -1.5 -4 q-1.5 -3 -1.5 -5 q3 -21 14.5 -60 q11.5 -39 27 -84 q15.5 -45 32.5 -91 q17 -46 32 -80 q12 31 28 74.5 q16 43.5 33 91 q17 47.5 33 94.5 q16 47 28 86 q3 10 2.5 19.5 q-0.5 9.5 2 16.5 q2.5 7 11 9 q8.5 2 28.5 -4 Z" /><glyph glyph-name="x" unicode="x" d="M71 443 q0 4 0 10.5 q0 6.5 2.5 12.5 q2.5 6 8.5 10 q6 4 18 3 q14 -2 28.5 -2.5 q14.5 -0.5 29 -3.5 q14.5 -3 28 -9 q13.5 -6 24.5 -18 q36 -52 71 -91.5 q35 -39.5 73 -78.5 q42 45 76 89 q34 44 60 85 q9 12 17 23 q8 11 16 19 q12 2 26.5 -7 q14.5 -9 27 -22.5 q12.5 -13.5 21 -26.5 q8.5 -13 8.5 -19 q0 -11 -46.5 -55 q-46.5 -44 -142.5 -142 q23 -21 48.5 -44.5 q25.5 -23.5 51.5 -46 q26 -22.5 51 -42.5 q25 -20 47 -35 q16 -10 16 -22 q0 -17 -8.5 -31.5 q-8.5 -14.5 -16.5 -26.5 q-7 -11 -13.5 -20 q-6.5 -9 -23.5 -9 q-12 0 -28 13 q-16 13 -41 40 q-25 27 -62 67.5 q-37 40.5 -89 95.5 q-17 -17 -41 -42.5 q-24 -25.5 -49 -52.5 q-25 -27 -47.5 -52 q-22.5 -25 -36.5 -41 q-14 -15 -23.5 -21 q-9.5 -6 -19.5 -6 q-11 0 -24 11 q-13 11 -25 25 q-12 14 -20 27.5 q-8 13.5 -8 18.5 q0 6 2.5 9 q2.5 3 6.5 5 q4 2 11 5 q7 3 16 9 q22 15 49 37 q27 22 54 45 q27 23 51.5 44.5 q24.5 21.5 40.5 35.5 q-33 31 -70.5 68 q-37.5 37 -69.5 69.5 q-32 32.5 -53 57 q-21 24.5 -22 32.5 Z" /><glyph glyph-name="y" unicode="y" d="M541 482 q23 -3 40.5 -13 q17.5 -10 29 -21.5 q11.5 -11.5 17.5 -21.5 q6 -10 6 -14 q0 -4 -5 -11 q-5 -7 -8 -14 q-2 -3 -11.5 -23 q-9.5 -20 -24.5 -51 q-15 -31 -34 -71 q-19 -40 -40.5 -83 q-21.5 -43 -44 -86.5 q-22.5 -43.5 -43.5 -81.5 q-45 -89 -111 -132 q-66 -43 -146 -43 q-15 0 -34 3 q-19 3 -36 11 q-17 8 -28.5 23 q-11.5 15 -11.5 38 q0 14 9 21.5 q9 7.5 17 7.5 q12 0 21 -4 q9 -4 23 -6 q34 -6 64 0 q30 6 54.5 20 q24.5 14 45 33.5 q20.5 19.5 37.5 42.5 q-17 36 -45.5 88 q-28.5 52 -62.5 108.5 q-34 56.5 -69 111.5 q-35 55 -64 96 q-8 11 -19 20 q-11 9 -9 21 q7 17 28.5 20.5 q21.5 3.5 44.5 -1 q23 -4.5 43 -14 q20 -9.5 26 -17.5 q3 -5 15 -28.5 q12 -23.5 28.5 -56.5 q16.5 -33 36.5 -71 q20 -38 38.5 -74 q18.5 -36 35 -65 q16.5 -29 26.5 -43 q25 55 45.5 101 q20.5 46 37 85 q16.5 39 29 73 q12.5 34 21.5 66 q2 9 3 18.5 q1 9.5 3.5 17.5 q2.5 8 7 14 q4.5 6 14.5 6 Z" /><glyph glyph-name="z" unicode="z" d="M122 459 q5 0 28.5 0 q23.5 0 57.5 0 q34 0 74 0 q40 0 77 0.5 q37 0.5 67.5 1.5 q30.5 1 46.5 3 q17 0 25.5 5.5 q8.5 5.5 19.5 5.5 q7 0 20.5 -13.5 q13.5 -13.5 26.5 -31.5 q13 -18 23 -35.5 q10 -17.5 10 -24.5 q0 -9 -3 -13 q-3 -4 -6 -6 q-13 -8 -38.5 -29 q-25.5 -21 -58.5 -49 q-33 -28 -70 -59.5 q-37 -31.5 -72.5 -61 q-35.5 -29.5 -66 -54.5 q-30.5 -25 -49.5 -40 q4 0 15.5 0 q11.5 0 25.5 -0.5 q14 -0.5 29 -0.5 q15 0 27 0 q10 0 42 0.5 q32 0.5 70 1.5 q38 1 74 2.5 q36 1.5 53 3.5 q25 0 44.5 -17 q19.5 -17 19.5 -37 q0 -11 -2 -20.5 q-2 -9.5 -9.5 -16 q-7.5 -6.5 -22.5 -10.5 q-15 -4 -41 -4 q-54 0 -115.5 5.5 q-61.5 5.5 -143.5 5.5 q-15 0 -37 -0.5 q-22 -0.5 -44.5 -1 q-22.5 -0.5 -43.5 -1 q-21 -0.5 -34 -0.5 q-11 0 -21.5 -4.5 q-10.5 -4.5 -18.5 -4.5 q-10 0 -20 8 q-10 8 -18 20 q-8 12 -13 25 q-5 13 -5 23 q0 16 13 19 q13 3 24 3 q3 0 5 1 q24 16 57 41 q33 25 69.5 54.5 q36.5 29.5 74 61.5 q37.5 32 71.5 62.5 q34 30.5 61.5 56.5 q27.5 26 43.5 43 q-21 0 -64 -1.5 q-43 -1.5 -92 -4 q-49 -2.5 -96.5 -5 q-47.5 -2.5 -77.5 -4.5 q-24 0 -30.5 13 q-6.5 13 -13.5 29 q-8 19 -6 29.5 q2 10.5 9 16 q7 5.5 15.5 7 q8.5 1.5 13.5 2.5 Z" /></font>
</defs>
</svg>
